<?xml version="1.0" standalone="no"?><!DOCTYPE svg PUBLIC "-//W3C//DTD SVG 1.1//EN" "http://www.w3.org/Graphics/SVG/1.1/DTD/svg11.dtd"><svg t="1651373917416" class="icon" viewBox="0 0 1024 1024" version="1.1" xmlns="http://www.w3.org/2000/svg" p-id="20805" xmlns:xlink="http://www.w3.org/1999/xlink" width="200" height="200"><defs><style type="text/css">@font-face { font-family: feedback-iconfont; src: url("//at.alicdn.com/t/font_1031158_u69w8yhxdu.woff2?t=1630033759944") format("woff2"), url("//at.alicdn.com/t/font_1031158_u69w8yhxdu.woff?t=1630033759944") format("woff"), url("//at.alicdn.com/t/font_1031158_u69w8yhxdu.ttf?t=1630033759944") format("truetype"); }
</style></defs><path d="M253.7 221.9c-9-6.3-12.7-3.3-8.1 6.7l130.8 289.1c4.5 10 17.2 18.2 28.2 18.2h276.6c11 0 12.6-5.2 3.6-11.5L253.7 221.9z" fill="#F9CC12" p-id="20806"></path><path d="M681.2 556H404.6c-18.8 0-38.7-12.9-46.5-30L227.3 236.8c-8.7-19.3 0.2-29.6 4.5-33.1s16-10.4 33.4 1.8l431.1 302.6c16.9 11.9 14.9 25.3 13.3 30.5-1.7 5.2-7.8 17.4-28.4 17.4z m-7.2-14.6zM285.6 268.8l108.9 240.8c1.3 2.8 6.9 6.5 10 6.5h233.3L285.6 268.8z" fill="#444D68" p-id="20807"></path><path d="M852.5 700.4H191.6c-59.3 0-107.9-48.5-107.9-107.9v-5.3c0-59.3 48.5-107.9 107.9-107.9h660.9c59.3 0 107.9 48.5 107.9 107.9v5.3c0 59.4-48.6 107.9-107.9 107.9z" fill="#186FED" p-id="20808"></path><path d="M852.5 720.4H191.6c-70.5 0-127.9-57.4-127.9-127.9v-5.3c0-70.5 57.4-127.9 127.9-127.9h660.9c70.5 0 127.9 57.4 127.9 127.9v5.3c0 70.6-57.4 127.9-127.9 127.9z m-660.9-221c-48.5 0-87.9 39.4-87.9 87.9v5.3c0 48.5 39.4 87.9 87.9 87.9h660.9c48.5 0 87.9-39.4 87.9-87.9v-5.3c0-48.5-39.4-87.9-87.9-87.9H191.6z" fill="#444D68" p-id="20809"></path><path d="M935.9 569.2H834.5c-5.5 0-10-4.5-10-10s4.5-10 10-10h101.4c5.5 0 10 4.5 10 10s-4.5 10-10 10zM187.5 627H108c-5.5 0-10-4.5-10-10s4.5-10 10-10h79.5c5.5 0 10 4.5 10 10s-4.5 10-10 10z" fill="#444D68" p-id="20810"></path><path d="M243.4 530L98.7 399c-8.2-7.4-14.8-4.4-14.8 6.6v184.3" fill="#186FED" p-id="20811"></path><path d="M83.8 609.9c-11 0-20-9-20-20V405.6c0-19.2 11.4-26.3 16.2-28.5 4.9-2.2 17.8-5.8 32 7.1l144.7 131c8.2 7.4 8.8 20.1 1.4 28.2s-20.1 8.8-28.2 1.4L103.8 430.7v159.2c0 11.1-8.9 20-20 20z m20.1-204.6z" fill="#444D68" p-id="20812"></path><path d="M253.7 931.1c-9 6.3-12.7 3.3-8.1-6.7l130.8-289.1c4.5-10 17.2-18.2 28.2-18.2h276.6c11 0 12.6 5.2 3.6 11.5L253.7 931.1z" fill="#F9CC12" p-id="20813"></path><path d="M246.1 954.4c-7 0-11.9-3.1-14.4-5.1-4.3-3.5-13.2-13.8-4.5-33.1L358.1 627c7.7-17.1 27.7-30 46.5-30h276.6c20.7 0 26.7 12.1 28.4 17.4 1.6 5.2 3.7 18.6-13.3 30.5L265.1 947.5c-7.4 5.2-13.8 6.9-19 6.9z m-4.9-39zM404.6 637c-3.1 0-8.7 3.6-10 6.5l-109 240.7L637.9 637H404.6z m277.4 0z m-8-25.4z" fill="#444D68" p-id="20814"></path><path d="M680.7 547.6m-11.6 0a11.6 11.6 0 1 0 23.2 0 11.6 11.6 0 1 0-23.2 0Z" fill="#434D68" p-id="20815"></path><path d="M598.9 547.6m-11.6 0a11.6 11.6 0 1 0 23.2 0 11.6 11.6 0 1 0-23.2 0Z" fill="#434D68" p-id="20816"></path><path d="M517.1 547.6m-11.6 0a11.6 11.6 0 1 0 23.2 0 11.6 11.6 0 1 0-23.2 0Z" fill="#434D68" p-id="20817"></path><path d="M435.3 547.6m-11.6 0a11.6 11.6 0 1 0 23.2 0 11.6 11.6 0 1 0-23.2 0Z" fill="#434D68" p-id="20818"></path></svg>