<?xml version="1.0" standalone="no"?><!DOCTYPE svg PUBLIC "-//W3C//DTD SVG 1.1//EN" "http://www.w3.org/Graphics/SVG/1.1/DTD/svg11.dtd"><svg t="1651305125643" class="icon" viewBox="0 0 1024 1024" version="1.1" xmlns="http://www.w3.org/2000/svg" p-id="13307" xmlns:xlink="http://www.w3.org/1999/xlink" width="200" height="200"><defs><style type="text/css">@font-face { font-family: feedback-iconfont; src: url("//at.alicdn.com/t/font_1031158_u69w8yhxdu.woff2?t=1630033759944") format("woff2"), url("//at.alicdn.com/t/font_1031158_u69w8yhxdu.woff?t=1630033759944") format("woff"), url("//at.alicdn.com/t/font_1031158_u69w8yhxdu.ttf?t=1630033759944") format("truetype"); }
</style></defs><path d="M508.152242 846.568727c-154.825697 0-278.388364-83.533576-278.388363-260.142545 0-61.315879 27.011879-118.318545 72.641939-169.472a409.11903 409.11903 0 0 1 51.215515-48.236606c7.338667-5.756121 14.894545-11.248485 22.636606-16.430546 24.560485-17.221818 22.248727-47.553939-1.799757-60.493575l0.06206-0.263758-0.155151-0.077576-0.294788-0.155151-0.822303-0.418909-1.163636-0.589576v0.03103l-0.620606-0.310303-0.465455-0.186182-0.093091-0.06206-0.03103 0.03103-2.49794-1.039515c-21.255758-6.593939-34.583273-22.543515-34.583272-39.036121 0-21.922909 23.458909-41.968485 54.489212-41.968485a48.09697 48.09697 0 0 1 23.474424 6.050909l2.653091 1.644606c19.704242 10.193455 45.102545 3.770182 59.221333-13.963636l1.830788-2.684122c3.413333-5.306182 7.509333-10.131394 12.210424-14.336 9.619394-8.890182 20.154182-13.963636 31.418182-13.963636 11.201939 0 21.721212 5.073455 31.371637 13.963636 6.11297 5.616485 10.395152 11.23297 12.179394 14.336l1.473939 2.218667c13.746424 18.199273 39.408485 24.296727 59.174788 14.661818l3.10303-1.861818a48.562424 48.562424 0 0 1 23.427879-6.050909c31.061333 0 54.520242 20.061091 54.520242 41.984 0 16.446061-13.34303 32.426667-34.567757 39.005091l-3.103031 1.241212a68.002909 68.002909 0 0 1-11.713939 4.840727c-30.549333 10.022788-35.746909 43.085576-10.984727 61.564121 2.389333 1.629091 4.732121 3.273697 7.059394 4.933819a445.145212 445.145212 0 0 1 68.732121 62.215757c45.955879 51.262061 73.076364 106.402909 73.076364 162.878061 0 185.731879-117.899636 260.142545-284.703031 260.142545z m243.215516-455.028363a493.133576 493.133576 0 0 0-56.987152-54.054788c-2.885818-2.358303-5.104485-4.018424-7.68-6.004364 36.026182-13.110303 61.238303-44.528485 61.238303-81.733818 0-50.067394-44.869818-88.389818-98.117818-88.389818a89.165576 89.165576 0 0 0-33.667879 6.516363c-3.863273 1.551515-7.571394 3.428848-11.108848 5.632-1.877333 0.822303-5.849212-0.124121-6.935273-1.551515l-0.03103 0.046546a112.748606 112.748606 0 0 0-19.114667-22.652122C562.020848 133.771636 541.990788 124.121212 519.059394 124.121212c-22.915879 0-42.97697 9.619394-59.904 25.243152a111.941818 111.941818 0 0 0-18.742303 22.155636l-0.03103-0.03103c-1.551515 1.923879-5.554424 2.932364-6.935273 2.218666a73.014303 73.014303 0 0 0-11.496727-5.818181 89.6 89.6 0 0 0-33.667879-6.531879c-53.248 0-98.071273 38.322424-98.071273 88.389818 0 31.806061 18.494061 59.345455 46.328243 74.876121-2.978909 2.280727-5.973333 4.561455-8.890182 6.888727a453.926788 453.926788 0 0 0-56.863031 53.527273C218.158545 444.043636 186.181818 511.534545 186.181818 586.457212c0 207.747879 146.044121 306.532848 321.970424 306.532849 73.728 0 145.795879-15.592727 204.117334-52.379152 79.158303-49.974303 124.167758-133.895758 124.167757-254.138182 0-70.469818-32.178424-135.866182-85.069575-194.932363z" fill="#444444" p-id="13308"></path><path d="M229.779394 586.426182c0-61.315879 26.996364-118.318545 72.626424-169.472a409.11903 409.11903 0 0 1 51.215515-48.236606c7.338667-5.756121 14.894545-11.248485 22.636606-16.430546 24.560485-17.221818 242.951758-14.36703 267.71394 4.111515 2.389333 1.629091 4.732121 3.273697 7.059394 4.933819a445.145212 445.145212 0 0 1 68.732121 62.215757c45.955879 51.262061 73.076364 106.402909 73.076364 162.878061 0 185.731879-117.899636 260.142545-284.703031 260.142545-154.810182 0-278.372848-83.533576-278.372848-260.142545z" fill="#F8D02D" p-id="13309"></path><path d="M598.993455 573.346909c10.022788 0 18.152727-8.812606 18.152727-19.719757 0-10.860606-8.129939-19.673212-18.152727-19.673213h-74.20897l68.887273-74.658909a20.867879 20.867879 0 0 0 0-27.834182 17.221818 17.221818 0 0 0-25.708606 0l-59.779879 64.806788-59.810909-64.806788a17.221818 17.221818 0 0 0-25.708606 0 20.914424 20.914424 0 0 0 0 27.834182l68.902787 74.658909h-74.24c-10.007273 0-18.152727 8.828121-18.152727 19.673213 0 10.907152 8.145455 19.704242 18.152727 19.704242h72.67297v19.704242h-72.67297c-10.007273 0-18.152727 8.797091-18.152727 19.673212 0 10.860606 8.145455 19.673212 18.152727 19.673213h72.67297v56.707878c0 8.300606 8.129939 15.049697 18.152727 15.049697 10.038303 0 18.168242-6.749091 18.168243-15.049697V632.397576h72.67297c10.022788 0 18.152727-8.797091 18.152727-19.673212 0-10.876121-8.129939-19.688727-18.152727-19.688728h-72.67297v-19.673212h72.67297z" fill="#444444" p-id="13310"></path></svg>