<?xml version="1.0" standalone="no"?><!DOCTYPE svg PUBLIC "-//W3C//DTD SVG 1.1//EN" "http://www.w3.org/Graphics/SVG/1.1/DTD/svg11.dtd"><svg t="1651671070041" class="icon" viewBox="0 0 1024 1024" version="1.1" xmlns="http://www.w3.org/2000/svg" p-id="3780" xmlns:xlink="http://www.w3.org/1999/xlink" width="200" height="200"><defs><style type="text/css">@font-face { font-family: feedback-iconfont; src: url("//at.alicdn.com/t/font_1031158_u69w8yhxdu.woff2?t=1630033759944") format("woff2"), url("//at.alicdn.com/t/font_1031158_u69w8yhxdu.woff?t=1630033759944") format("woff"), url("//at.alicdn.com/t/font_1031158_u69w8yhxdu.ttf?t=1630033759944") format("truetype"); }
</style></defs><path d="M688 180v255l25.5-35.7c1.5-2.1 3.9-3.4 6.5-3.4s5 1.2 6.5 3.4L752 435V180h-64z" fill="#A0D3F8" p-id="3781"></path><path d="M944 316h-48v-96c0-0.1-0.1-0.2-0.1-0.3 0-1.3-0.4-2.5-0.7-3.7-0.2-0.8-0.2-1.7-0.6-2.4-0.4-0.9-1.1-1.6-1.6-2.4-0.6-0.9-1.1-1.9-1.8-2.6-0.5-0.5-1.3-0.8-1.9-1.3-1.1-0.8-2.1-1.6-3.4-2.2-0.1 0-0.1-0.1-0.2-0.1-2.1-0.8-49.9-18.9-117.7-26v-7c0-4.4-3.6-8-8-8h-80c-4.4 0-8 3.6-8 8v6.6c-60 6-113.7 24.2-159.9 54.3-163.5-106.6-365.2-31.2-373.8-27.8-0.1 0-0.1 0.1-0.2 0.1-1.2 0.5-2.2 1.3-3.2 2.1-0.6 0.5-1.4 0.8-2 1.3-0.8 0.7-1.2 1.7-1.8 2.6-0.6 0.8-1.3 1.5-1.7 2.5-0.3 0.8-0.4 1.6-0.6 2.4-0.3 1.2-0.7 2.4-0.7 3.7 0 0.1-0.1 0.2-0.1 0.3v96H80c-8.8 0-16 7.2-16 16v512c0 8.8 7.2 16 16 16h864c8.8 0 16-7.2 16-16V332c0-8.8-7.2-16-16-16zM96 828V348h32v416c0 0.5 0.2 0.9 0.3 1.4 0 0.5-0.1 0.9 0 1.4 0.1 0.6 0.5 1.1 0.7 1.7 0.3 1.1 0.7 2 1.2 3 0.5 0.9 1 1.7 1.6 2.4 0.7 0.8 1.4 1.6 2.2 2.2 0.8 0.6 1.5 1.1 2.4 1.6 0.9 0.5 1.8 0.9 2.8 1.3 1 0.3 2 0.5 3.1 0.6 0.6 0.1 1.2 0.4 1.8 0.4 0.5 0 0.9-0.2 1.4-0.3 0.5 0 0.9 0.1 1.4 0 2.5-0.5 245.8-42.1 343 48.2H96z m400-36.1c-98-71.7-277.4-54.5-336-46.5V231.5c42.1-13.4 205.6-56.7 336 29.2v531.2z m192-584.4V180h64v255l-25.5-35.7c-1.5-2.1-3.9-3.4-6.5-3.4s-5 1.2-6.5 3.4L688 435V207.5z m-160 53.2c41.4-27.3 89.8-44.1 144-49.9V460c0 3.5 2.2 6.6 5.6 7.6 3.3 1.1 6.9-0.1 9-3l33.5-46.9 33.5 46.9c1.5 2.1 4 3.4 6.5 3.4 0.8 0 1.6-0.1 2.4-0.4 3.3-1.1 5.6-4.1 5.6-7.6V211.3c44.3 4.9 79.5 14.9 96 20.2v513.9c-58.6-8-238-25.2-336 46.4V260.7zM928 828H534.3c97-90.2 340.4-48.7 343-48.2 0.5 0.1 0.9-0.1 1.4 0 0.5 0 0.9 0.3 1.4 0.3 0.6 0 1.2-0.3 1.8-0.4 1.1-0.1 2.1-0.3 3.1-0.6s1.9-0.7 2.8-1.2c0.9-0.5 1.7-1 2.5-1.7s1.5-1.4 2.1-2.2c0.6-0.8 1.2-1.6 1.7-2.5 0.5-0.9 0.9-1.9 1.2-3 0.2-0.6 0.5-1.1 0.7-1.7 0.1-0.5-0.1-0.9 0-1.4 0-0.5 0.3-0.9 0.3-1.4V348h32v480z" fill="#108EE9" p-id="3782"></path><path d="M222.7 287.7c-4.4 0.7-7.3 4.8-6.6 9.2 0.7 4.4 4.8 7.4 9.2 6.6 1.6-0.2 162-25.8 216.8 33.9 1.6 1.7 3.7 2.6 5.9 2.6 1.9 0 3.9-0.7 5.4-2.1 3.3-3 3.5-8 0.5-11.3-60.7-66.1-224.3-40-231.2-38.9zM222.7 351.7c-4.4 0.7-7.3 4.8-6.6 9.2 0.7 4.4 4.8 7.4 9.2 6.6 1.6-0.2 162-25.8 216.8 33.9 1.6 1.7 3.7 2.6 5.9 2.6 1.9 0 3.9-0.7 5.4-2.1 3.3-3 3.5-8 0.5-11.3-60.7-66.1-224.3-40-231.2-38.9z" fill="#108EE9" p-id="3783"></path></svg>