<?xml version="1.0" standalone="no"?><!DOCTYPE svg PUBLIC "-//W3C//DTD SVG 1.1//EN" "http://www.w3.org/Graphics/SVG/1.1/DTD/svg11.dtd"><svg t="1651671946426" class="icon" viewBox="0 0 1066 1024" version="1.1" xmlns="http://www.w3.org/2000/svg" p-id="23666" xmlns:xlink="http://www.w3.org/1999/xlink" width="208.203125" height="200"><defs><style type="text/css">@font-face { font-family: feedback-iconfont; src: url("//at.alicdn.com/t/font_1031158_u69w8yhxdu.woff2?t=1630033759944") format("woff2"), url("//at.alicdn.com/t/font_1031158_u69w8yhxdu.woff?t=1630033759944") format("woff"), url("//at.alicdn.com/t/font_1031158_u69w8yhxdu.ttf?t=1630033759944") format("truetype"); }
</style></defs><path d="M512.896 330.496l440.533333-162.474667a42.666667 42.666667 0 1 0-29.525333-80.042666L450.944 262.4a42.666667 42.666667 0 0 0-27.434667 46.165333l62.378667 429.653334-370.773333 117.077333a42.666667 42.666667 0 0 0 25.728 81.408l405.333333-128a42.666667 42.666667 0 0 0 29.397333-46.848L512.853333 330.496z" fill="#F15A24" p-id="23667"></path><path d="M128 1024a128 128 0 1 0 0-256 128 128 0 0 0 0 256z" fill="#F15A24" p-id="23668"></path><path d="M128 938.666667a42.666667 42.666667 0 1 1 0-85.333334 42.666667 42.666667 0 0 1 0 85.333334z" fill="#FFFFFF" p-id="23669"></path><path d="M938.666667 256a128 128 0 1 0 0-256 128 128 0 0 0 0 256z" fill="#F15A24" p-id="23670"></path><path d="M938.666667 170.666667a42.666667 42.666667 0 1 1 0-85.333334 42.666667 42.666667 0 0 1 0 85.333334z" fill="#FFFFFF" p-id="23671"></path></svg>