<?xml version="1.0" standalone="no"?><!DOCTYPE svg PUBLIC "-//W3C//DTD SVG 1.1//EN" "http://www.w3.org/Graphics/SVG/1.1/DTD/svg11.dtd"><svg t="1651304927581" class="icon" viewBox="0 0 1024 1024" version="1.1" xmlns="http://www.w3.org/2000/svg" p-id="12135" xmlns:xlink="http://www.w3.org/1999/xlink" width="200" height="200"><defs><style type="text/css">@font-face { font-family: feedback-iconfont; src: url("//at.alicdn.com/t/font_1031158_u69w8yhxdu.woff2?t=1630033759944") format("woff2"), url("//at.alicdn.com/t/font_1031158_u69w8yhxdu.woff?t=1630033759944") format("woff"), url("//at.alicdn.com/t/font_1031158_u69w8yhxdu.ttf?t=1630033759944") format("truetype"); }
</style></defs><path d="M244.6 138L84.9 299.5l111.7 121.1 71.1-46.4zM824.3 137.8L984 299.3 872.3 420.4l-71-46.4z" fill="#F9D447" p-id="12136"></path><path d="M98.4 300.6L243 205.5l-7.4-49.8z" fill="#FFFFFF" p-id="12137"></path><path d="M230.5 279.8l-61.8 103.8 27.9 37 41.3-27z" fill="#FFAC1F" p-id="12138"></path><path d="M230.5 279.8l-61.8 103.8 27.9 37 41.3-27z" fill="#FFAC1F" p-id="12139"></path><path d="M971.7 300.6l-144.6-95.1 7.5-49.8z" fill="#FFFFFF" p-id="12140"></path><path d="M827.1 332.1l101.4 27.4-54.9 61.1-41.4-27z" fill="#FFAC1F" p-id="12141"></path><path d="M872.3 430.4c-1.9 0-3.8-0.5-5.5-1.6l-71.1-46.4c-3.1-2-4.8-5.6-4.5-9.3l23-236.2c0.4-3.9 3-7.2 6.6-8.5 3.7-1.3 7.7-0.4 10.5 2.4L991 292.3c3.8 3.8 3.9 9.9 0.2 13.8L879.7 427.2c-2 2.1-4.7 3.2-7.4 3.2z m-60.5-61.5l58.9 38.5 99.5-107.9-138-139.5-20.4 208.9z" p-id="12142"></path><path d="M250.3 201.6s78.8-76 158-99.2l-28.4-22.9S238.5 107.7 235.6 138l14.7 63.6z" fill="#FFFFFF" p-id="12143"></path><path d="M196.6 430.6c-2.7 0-5.4-1.1-7.4-3.2L77.6 306.3c-3.6-3.9-3.5-10 0.2-13.8L237.5 131c2.7-2.8 6.8-3.7 10.5-2.4 3.7 1.3 6.2 4.6 6.6 8.5l23 236.2c0.4 3.7-1.4 7.3-4.5 9.3l-71 46.4c-1.7 1.1-3.6 1.6-5.5 1.6zM98.7 299.7l99.5 107.9 58.9-38.5-20.4-208.9-138 139.5z" p-id="12144"></path><path d="M662.5 73.7L528.7 227.6c-0.6 0.6-1.5 0.6-2.1 0L394.5 76.1c-114 24.6-151.5 62.6-151.5 63.2v797.5c0 8.3 6.8 15 15 15h552.8c8.3 0 15-6.8 15-15V139.3c0-0.7-40-42-163.3-65.6z" fill="#F9D447" p-id="12145"></path><path d="M814.9 952.1h-561c-6 0-10.9-4.9-10.9-10.9V749h582.8v192.2c0 6-4.9 10.9-10.9 10.9zM243 391.6h582.8v203.1H243z" fill="#6EA0A7" p-id="12146"></path><path d="M251.1 390.2h570.8v37.7H251.1zM251.1 753.5h570.8v37.7H251.1z" fill="#FFFFFF" p-id="12147"></path><path d="M814.9 962.1h-561c-11.5 0-20.9-9.4-20.9-20.9V739h602.8v202.2c0 11.5-9.4 20.9-20.9 20.9zM253 759v182.2c0 0.5 0.4 0.9 0.9 0.9h560.9c0.5 0 0.9-0.4 0.9-0.9V759H253z" p-id="12148"></path><path d="M251.1 555.6h570.8v37.7H251.1zM251.1 913.7h570.8v37.7H251.1z" fill="#498284" p-id="12149"></path><path d="M277.4 125.2s80.8-19.9 105.9-5 135.5 109.5 135.5 109.5l-137.4-156-104 51.5zM550.5 224.2S655 135.8 676 124.2s83.4-16.8 114.7 2.8c0 0-36.3-37.7-120.1-47.5l-76 66.5-44.1 78.2z" fill="#FFFFFF" p-id="12150"></path><path d="M810.8 961.8H258c-13.8 0-25-11.2-25-25V139.3c0-4.4 1.7-7.1 11.6-14.6 5-3.8 13.8-9.9 26.7-16.8 22-11.8 60.9-28.6 121.1-41.6l5.8-1.2 129.5 148.5 131-150.8 5.7 1.1c65.1 12.5 107 30 130.7 42.4 13.9 7.3 23.2 13.7 28.7 17.9 10.9 8.3 12.1 11.1 12.1 15.1v797.5c-0.1 13.7-11.3 25-25.1 25zM253 143.5v793.2c0 2.7 2.3 5 5 5h552.8c2.7 0 5-2.3 5-5V143.5c-9.6-8.3-50.6-39.1-149.6-58.9L536 234.4l-0.2 0.2c-2.2 2.2-5 3.4-8.1 3.4-3.1 0-5.9-1.2-8.1-3.4l-0.5-0.5-128.2-147c-90.6 20.4-128.6 48.6-137.9 56.4z" p-id="12151"></path><path d="M835.8 604.7H233V381.6h602.8v223.1z m-582.8-20h562.8V401.6H253v183.1z" p-id="12152"></path></svg>