<?xml version="1.0" standalone="no"?><!DOCTYPE svg PUBLIC "-//W3C//DTD SVG 1.1//EN" "http://www.w3.org/Graphics/SVG/1.1/DTD/svg11.dtd"><svg t="1651671792918" class="icon" viewBox="0 0 1024 1024" version="1.1" xmlns="http://www.w3.org/2000/svg" p-id="21785" xmlns:xlink="http://www.w3.org/1999/xlink" width="200" height="200"><defs><style type="text/css">@font-face { font-family: feedback-iconfont; src: url("//at.alicdn.com/t/font_1031158_u69w8yhxdu.woff2?t=1630033759944") format("woff2"), url("//at.alicdn.com/t/font_1031158_u69w8yhxdu.woff?t=1630033759944") format("woff"), url("//at.alicdn.com/t/font_1031158_u69w8yhxdu.ttf?t=1630033759944") format("truetype"); }
</style></defs><path d="M673.08 502.06c18.98-20.94 17.38-53.28-3.56-72.26l-143.04-140.5c-20.94-18.98-53.28-17.38-72.26 3.56-18.98 20.94-17.38 53.28 3.56 72.26l143.04 140.5c20.94 18.96 53.28 17.38 72.26-3.56z" fill="#E74150" p-id="21786"></path><path d="M635.14 527.14c-14.24 0-28.54-5.08-39.9-15.38l-143.28-140.74c-11.52-10.44-18.44-25.04-19.22-40.92s4.66-31.08 15.32-42.86c10.66-11.76 25.28-18.68 41.14-19.46 15.86-0.76 31.08 4.66 42.86 15.32l143.28 140.74c11.52 10.44 18.44 25.04 19.22 40.92 0.78 15.86-4.66 31.08-15.32 42.86-11.72 12.94-27.88 19.52-44.1 19.52z m-142.9-242.8c-11.7 0-23.38 4.74-31.86 14.1-7.68 8.48-11.6 19.44-11.04 30.88s5.54 21.96 14.02 29.64l143.28 140.74c17.26 15.64 44.42 14.3 60.28-3.22 7.68-8.48 11.6-19.44 11.04-30.88a42.52 42.52 0 0 0-14.02-29.64l-143.28-140.74c-8.04-7.28-18.22-10.88-28.42-10.88z" fill="#0B0606" p-id="21787"></path><path d="M407.94 245.14m-65.96 0a65.96 65.96 0 1 0 131.92 0 65.96 65.96 0 1 0-131.92 0Z" fill="#F4AA2C" p-id="21788"></path><path d="M407.94 319.42c-32.9 0-63.04-22.06-71.82-55.32-10.44-39.6 13.26-80.32 52.86-90.76 19.18-5.06 39.18-2.36 56.32 7.64 17.14 9.98 29.36 26.04 34.42 45.22 10.44 39.6-13.26 80.3-52.86 90.76-6.3 1.66-12.66 2.46-18.92 2.46z m0.08-131.94c-4.94 0-9.9 0.64-14.8 1.94-30.74 8.1-49.14 39.72-41.04 70.44 8.12 30.74 39.72 49.12 70.44 41.04 30.74-8.12 49.14-39.72 41.04-70.44-3.92-14.88-13.42-27.36-26.72-35.1a56.87 56.87 0 0 0-28.92-7.88z" fill="#0B0606" p-id="21789"></path><path d="M471 323.5l-102.72 115.48c-7.4 8.32-6.66 21.06 1.66 28.46 7.74 6.88 19.36 6.64 26.9-0.1l114.76-103.52c11.76-10.6 12.68-28.72 2.08-40.46-10.6-11.76-28.72-12.68-40.46-2.08-0.78 0.7-1.52 1.46-2.22 2.22z" fill="#E74150" p-id="21790"></path><path d="M383.32 480.82c-6.76 0-13.5-2.4-18.88-7.18-11.72-10.42-12.78-28.46-2.36-40.18l102.72-115.48c0.88-1 1.84-1.96 2.86-2.88 7.34-6.62 16.8-9.96 26.66-9.48 9.86 0.5 18.94 4.82 25.54 12.16a36.62 36.62 0 0 1 9.46 26.66 36.62 36.62 0 0 1-12.16 25.54l-114.76 103.52a28.466 28.466 0 0 1-19.08 7.32z m93.9-151.78l-102.72 115.46a11.856 11.856 0 0 0 0.98 16.72c4.5 4 11.3 3.98 15.82-0.08l114.72-103.5c4.04-3.64 6.42-8.64 6.7-14.06 0.28-5.42-1.58-10.64-5.2-14.66a20.216 20.216 0 0 0-14.06-6.7 19.984 19.984 0 0 0-16.24 6.82z" fill="#0B0606" p-id="21791"></path><path d="M367.7 427.82l-126.7 88.48c-9.12 6.38-11.36 18.94-4.98 28.06 5.92 8.48 17.3 10.96 26.18 6.14l135.64-74.06c13.88-7.58 19-24.98 11.42-38.88-7.58-13.88-24.98-19-38.88-11.42-0.92 0.54-1.82 1.1-2.68 1.68z" fill="#F4AA2C" p-id="21792"></path><path d="M252.54 561.28c-9.04 0-17.86-4.3-23.34-12.16a28.184 28.184 0 0 1-4.68-21.28c1.32-7.48 5.5-14 11.72-18.36l126.72-88.5c1.08-0.76 2.26-1.48 3.44-2.14 17.88-9.76 40.38-3.16 50.14 14.74 9.76 17.88 3.16 40.38-14.72 50.16l-135.64 74.06a28.47 28.47 0 0 1-13.64 3.48z m119.92-126.64l-126.7 88.48c-2.6 1.8-4.32 4.52-4.88 7.64-0.56 3.12 0.14 6.26 1.96 8.86 3.46 4.94 10.08 6.48 15.42 3.6l135.62-74.04c9.84-5.38 13.48-17.76 8.1-27.6s-17.76-13.48-27.6-8.1c-0.68 0.34-1.32 0.74-1.92 1.16z" fill="#0B0606" p-id="21793"></path><path d="M639.44 452.76l-178.62 91.42c-12.34 6.32-17.22 21.42-10.9 33.76 5.76 11.24 18.84 16.28 30.44 12.3l189.88-64.9c20.66-7.06 31.68-29.52 24.62-50.18-7.06-20.66-29.52-31.68-50.18-24.62-1.76 0.6-3.64 1.4-5.24 2.22z" fill="#F4AA2C" p-id="21794"></path><path d="M472.36 599.88c-12.26 0-24.02-6.78-29.84-18.16-4.06-7.94-4.8-16.98-2.06-25.48 2.74-8.48 8.62-15.4 16.56-19.46l178.68-91.44c2.04-1.02 4.26-1.96 6.26-2.66 12.1-4.14 25.08-3.3 36.54 2.32 11.48 5.62 20.06 15.38 24.2 27.48 4.14 12.08 3.3 25.06-2.32 36.54-5.62 11.46-15.38 20.06-27.48 24.2l-189.88 64.9c-3.5 1.18-7.1 1.76-10.66 1.76z m170.84-139.72l-178.6 91.4c-3.98 2.04-6.94 5.52-8.32 9.78s-1.02 8.8 1.04 12.8c3.78 7.38 12.54 10.92 20.34 8.24l189.88-64.9c7.88-2.7 14.26-8.3 17.92-15.78 3.68-7.48 4.2-15.96 1.52-23.84a31.04 31.04 0 0 0-15.78-17.94c-7.48-3.68-15.94-4.2-23.84-1.52-1.28 0.44-2.8 1.08-4.16 1.76z" fill="#0B0606" p-id="21795"></path><path d="M438 590.14l80.2 183.94c5.54 12.7 20.32 18.5 33.02 12.96 11.58-5.04 17.42-17.78 14.16-29.62l-53.02-193.52c-5.76-21.06-27.52-33.44-48.56-27.68-21.06 5.76-33.44 27.52-27.68 48.56 0.46 1.78 1.16 3.7 1.88 5.36z" fill="#F4AA2C" p-id="21796"></path><path d="M541.22 797.44c-12.88 0-25.18-7.5-30.66-20.04l-80.22-184c-0.9-2.1-1.7-4.4-2.26-6.42-6.96-25.44 8.06-51.8 33.5-58.78 12.32-3.38 25.22-1.76 36.32 4.58 11.1 6.32 19.08 16.6 22.46 28.92l53.02 193.52c4.36 15.88-3.74 32.84-18.86 39.44-4.32 1.88-8.84 2.78-13.3 2.78z m-95.6-210.6l80.18 183.9c1.8 4.1 5.08 7.28 9.24 8.92 4.18 1.64 8.74 1.56 12.84-0.24 7.6-3.32 11.66-11.82 9.48-19.8l-53.04-193.52c-2.2-8.04-7.4-14.74-14.66-18.88a31.05 31.05 0 0 0-23.7-2.98c-16.6 4.54-26.4 21.76-21.86 38.36 0.38 1.28 0.92 2.84 1.52 4.24z" fill="#0B0606" p-id="21797"></path><path d="M752.84 626.22c-65.88 0-119.3 53.42-119.3 119.3s53.42 119.3 119.3 119.3 119.3-53.42 119.3-119.3-53.42-119.3-119.3-119.3z m0 200.88c-45.06 0-81.58-36.52-81.58-81.58 0-45.06 36.52-81.58 81.58-81.58s81.58 36.52 81.58 81.58c0 45.06-36.52 81.58-81.58 81.58z" fill="#E74150" p-id="21798"></path><path d="M752.84 873.12c-70.36 0-127.6-57.24-127.6-127.6 0-70.36 57.24-127.6 127.6-127.6s127.6 57.24 127.6 127.6c0 70.36-57.24 127.6-127.6 127.6z m0-238.6c-61.2 0-110.98 49.78-110.98 110.98s49.78 110.98 110.98 110.98 110.98-49.78 110.98-110.98c0-61.18-49.78-110.98-110.98-110.98z m0 200.88c-49.56 0-89.9-40.32-89.9-89.9s40.32-89.88 89.9-89.88 89.9 40.32 89.9 89.88-40.34 89.9-89.9 89.9z m0-163.16c-40.4 0-73.28 32.86-73.28 73.26s32.88 73.28 73.28 73.28 73.28-32.88 73.28-73.28-32.88-73.26-73.28-73.26z" fill="#0B0606" p-id="21799"></path><path d="M300.38 626.22c-65.88 0-119.3 53.42-119.3 119.3s53.42 119.3 119.3 119.3 119.3-53.42 119.3-119.3-53.4-119.3-119.3-119.3z m0 200.88c-45.06 0-81.58-36.52-81.58-81.58 0-45.06 36.52-81.58 81.58-81.58 45.06 0 81.58 36.52 81.58 81.58 0 45.06-36.52 81.58-81.58 81.58z" fill="#E74150" p-id="21800"></path><path d="M300.38 873.12c-70.36 0-127.6-57.24-127.6-127.6 0-70.36 57.24-127.6 127.6-127.6 70.36 0 127.6 57.24 127.6 127.6 0.02 70.36-57.24 127.6-127.6 127.6z m0-238.6c-61.2 0-110.98 49.78-110.98 110.98s49.78 110.98 110.98 110.98 110.98-49.78 110.98-110.98c0.02-61.18-49.78-110.98-110.98-110.98z m0 200.88c-49.56 0-89.9-40.32-89.9-89.9s40.32-89.88 89.9-89.88 89.9 40.32 89.9 89.88-40.32 89.9-89.9 89.9z m0-163.16c-40.4 0-73.28 32.86-73.28 73.26s32.88 73.28 73.28 73.28 73.28-32.88 73.28-73.28-32.88-73.26-73.28-73.26z" fill="#0B0606" p-id="21801"></path></svg>