<?xml version="1.0" standalone="no"?><!DOCTYPE svg PUBLIC "-//W3C//DTD SVG 1.1//EN" "http://www.w3.org/Graphics/SVG/1.1/DTD/svg11.dtd"><svg t="1651671739255" class="icon" viewBox="0 0 1024 1024" version="1.1" xmlns="http://www.w3.org/2000/svg" p-id="21629" xmlns:xlink="http://www.w3.org/1999/xlink" width="200" height="200"><defs><style type="text/css">@font-face { font-family: feedback-iconfont; src: url("//at.alicdn.com/t/font_1031158_u69w8yhxdu.woff2?t=1630033759944") format("woff2"), url("//at.alicdn.com/t/font_1031158_u69w8yhxdu.woff?t=1630033759944") format("woff"), url("//at.alicdn.com/t/font_1031158_u69w8yhxdu.ttf?t=1630033759944") format("truetype"); }
</style></defs><path d="M826.057143 349.6l10.4 593.028571c0 9.257143-6.285714 17.257143-15.085714 18.971429-37.257143 7.428571-141.942857 24.914286-293.828572 24.914286s-256.571429-17.6-293.828571-24.914286c-8.8-1.714286-15.085714-9.714286-7.085715-18.971429V349.6" fill="#00B8D4" p-id="21630"></path><path d="M831.085714 439.771429s129.714286-11.542857 129.714286-20.114286c0-18.857143-6.285714-78.628571-12.228571-152.571429-5.942857-73.714286-63.314286-131.771429-134.742858-136.457143l-123.428571-8.114285c-14.857143-1.6-24-33.371429-24-33.371429s-24.457143-18.742857-138.857143-18.742857-138.857143 18.628571-138.857143 18.628571-9.142857 31.885714-24 33.371429L241.142857 130.628571c-71.428571 4.685714-128.8 62.742857-134.742857 136.342858-5.942857 73.6-12.228571 131.771429-12.228571 151.428571 0 8.914286 59.657143 15.657143 124.342857 20.228571" fill="#00B8D4" p-id="21631"></path><path d="M656.228571 926.971429c-2.742857 0-5.028571-2.057143-5.371428-4.914286-0.228571-2.971429 1.828571-5.6 4.8-5.828572 51.771429-4.914286 88.342857-11.314286 105.485714-14.742857 5.028571-1.028571 8.8-5.714286 8.8-11.2v-78.857143c0-2.971429 2.4-5.371429 5.371429-5.371428s5.371429 2.4 5.371428 5.371428v78.971429c0 10.628571-7.314286 19.657143-17.371428 21.714286-17.371429 3.428571-54.285714 9.942857-106.514286 14.857143h-0.571429zM595.314286 932.228571c-2.857143 0-5.257143-2.285714-5.371429-5.142857-0.114286-2.971429 2.171429-5.485714 5.142857-5.6 13.028571-0.571429 22.4-1.142857 34.285715-1.942857 3.085714-0.228571 5.485714 2.057143 5.714285 5.028572 0.228571 2.971429-2.057143 5.485714-5.028571 5.714285-12 0.8-21.371429 1.371429-34.514286 1.942857h-0.228571z" fill="#1C4F69" p-id="21632"></path><path d="M512 1002.514286c-158.4 0-267.771429-18.285714-307.542857-26.171429-16.571429-3.314286-28.571429-18.171429-28.571429-35.428571V326.857143c0-8.914286 7.2-16.114286 16.114286-16.114286s16.114286 7.2 16.114286 16.114286v614.171428c0 1.942857 1.142857 3.542857 2.628571 3.885715C249.485714 952.457143 356.457143 970.285714 512 970.285714s262.514286-17.828571 301.257143-25.485714c1.6-0.342857 2.628571-1.942857 2.628571-3.885714l-10.742857-613.828572c-0.114286-8.914286 6.971429-16.228571 15.771429-16.342857 9.371429-0.114286 16.228571 6.971429 16.342857 15.771429l10.742857 614.171428c0 17.485714-12 32.457143-28.571429 35.771429-39.657143 7.771429-149.028571 26.057143-307.428571 26.057143z" fill="#1C4F69" p-id="21633"></path><path d="M192 459.428571h-1.142857c-137.257143-9.714286-143.657143-19.428571-143.657143-37.028571 0-17.142857 4.228571-78.514286 12.685714-182.4 6.742857-83.542857 73.257143-150.628571 154.514286-156l126.514286-8.342857c3.428571-2.514286 9.142857-13.6 11.885714-23.085714 0.914286-3.314286 2.971429-6.171429 5.714286-8.342858 4.914286-3.771429 35.657143-22.742857 153.6-22.742857s148.571429 18.971429 153.6 22.742857c2.742857 2.057143 4.685714 5.028571 5.714285 8.342858 2.742857 9.485714 8.457143 20.571429 11.885715 23.085714l126.4 8.342857c81.371429 5.371429 147.771429 72.457143 154.514285 156.114286 8.457143 104.571429 12.8 165.828571 12.8 182.285714 0 17.714286-6.628571 28.114286-143.885714 36.571429-8.914286 0.685714-16.457143-6.171429-17.028571-15.085715-0.571429-8.914286 6.171429-16.457143 15.085714-17.028571 75.542857-4.685714 103.428571-9.942857 113.371429-12.8-0.8-18.628571-3.771429-64.228571-12.457143-171.428572-5.485714-67.771429-59.085714-122.285714-124.571429-126.514285l-127.885714-8.457143c-20.685714-2.171429-32.114286-25.828571-37.028572-39.428572-10.285714-4-44.8-14.514286-130.628571-14.514285-85.028571 0-119.657143 10.285714-130.514286 14.628571-4.914286 13.714286-16.228571 37.142857-36.342857 39.314286l-128.571428 8.457143c-65.485714 4.342857-119.085714 58.628571-124.571429 126.514285-8.685714 106.4-11.657143 152.228571-12.457143 171.2 10.171429 2.857143 38.171429 8.114286 113.6 13.485715 8.914286 0.685714 15.542857 8.342857 14.971429 17.142857-0.685714 8.457143-7.771429 14.971429-16.114286 14.971428z" fill="#1C4F69" p-id="21634"></path><path d="M541.485714 113.942857c-2.742857 0-5.142857-2.171429-5.371428-4.914286-0.228571-2.971429 1.942857-5.6 4.914285-5.714285 34.742857-2.742857 88.571429-18.857143 108.571429-36.457143 2.171429-1.942857 5.6-1.714286 7.542857 0.457143 1.942857 2.171429 1.714286 5.6-0.457143 7.542857-22.171429 19.542857-78.285714 36.228571-114.857143 39.085714h-0.342857z" fill="#1C4F69" p-id="21635"></path><path d="M511.885714 991.771429c-2.971429 0-5.371429-2.4-5.371428-5.371429l0.114285-844.228571c0-14.514286-9.828571-26.285714-24.457142-29.257143-28-5.828571-82.742857-23.885714-112.457143-37.142857-2.742857-1.257143-3.885714-4.342857-2.742857-7.085715 1.257143-2.742857 4.342857-3.885714 7.085714-2.742857 29.257143 13.028571 82.857143 30.628571 110.285714 36.457143 19.428571 4 33.028571 20.457143 33.028572 39.771429l-0.114286 844.228571c0 2.971429-2.4 5.371429-5.371429 5.371429z" fill="#1C4F69" p-id="21636"></path></svg>