<?xml version="1.0" standalone="no"?><!DOCTYPE svg PUBLIC "-//W3C//DTD SVG 1.1//EN" "http://www.w3.org/Graphics/SVG/1.1/DTD/svg11.dtd"><svg t="1651287266246" class="icon" viewBox="0 0 1024 1024" version="1.1" xmlns="http://www.w3.org/2000/svg" p-id="51757" xmlns:xlink="http://www.w3.org/1999/xlink" width="200" height="200"><defs><style type="text/css">@font-face { font-family: feedback-iconfont; src: url("//at.alicdn.com/t/font_1031158_u69w8yhxdu.woff2?t=1630033759944") format("woff2"), url("//at.alicdn.com/t/font_1031158_u69w8yhxdu.woff?t=1630033759944") format("woff"), url("//at.alicdn.com/t/font_1031158_u69w8yhxdu.ttf?t=1630033759944") format("truetype"); }
</style></defs><path d="M502.3 656.5C423.4 745.7 334 848.7 316.1 866.6c-30.2 30.2-68.9 33.7-98.6 4-29.7-29.7-26.1-68.4 4-98.6 18.2-18.2 124.2-110.2 214.3-190l66.4-59.3c29.3-26.5 51.9-47.6 61.5-58 40.1-43.6 7.8-139.6 42-171.5 34.2-31.9 205.2-164.9 205.2-164.9l148.8 148.8S826.7 448 794.8 482.3c-31.9 34.2-127.8 1.9-171.5 42-9.9 9.1-29.7 30.2-54.6 57.7l-66.4 74.5z" fill="#5FE0A3" p-id="51758"></path><path d="M792.4 871.9c29.7-29.7 26.1-68.4-4-98.5-30.2-30.2-302.1-263.6-342.2-307.2-40.1-43.6-1.8-89.4-42-171.5S227.7 158.4 227.7 158.4c-22.9-9.9-85.5-29.1-131.7 17.1-46.2 46.2-27 108.9-17.1 131.7 0 0 54.2 136.3 136.3 176.5 82.1 40.2 127.8 1.9 171.5 42 43.6 40.1 277.1 312 307.2 342.2 30.2 30.1 68.9 33.6 98.5 4z" fill="#FFE91F" p-id="51759"></path><path d="M938.033 182.974L715.79 405.216l-29.698-29.698 222.242-222.242z" fill="#333333" p-id="51760"></path><path d="M802.4 757.2c-12.5-12.5-60.8-54.9-122-108.7-25.1-22-51.9-45.6-78-68.7 18.6-20.3 31.4-33.7 38.3-40 16.9-15.6 49.2-16.7 80.5-17.8 34.8-1.2 70.9-2.5 92.1-25.3 32.1-34.5 160.7-199.6 166.1-206.6l-33.1-25.8C945 266.1 813.5 435 782.6 468.1c-9.4 10.1-36.6 11.1-62.9 12-37.1 1.3-79 2.8-107.4 28.9-7.8 7.2-21.4 21.4-41.3 43.1-11.7-10.4-22.9-20.4-33.6-29.9 22.8-20.8 37.5-35 44.9-43 26.1-28.4 27.5-70.4 28.9-107.4 0.9-26.3 1.9-53.5 12-62.9 33.2-30.9 202-162.4 203.7-163.7l-25.8-33.1c-7 5.5-172.1 134-206.6 166.1-22.8 21.3-24.1 57.3-25.3 92.1-1.1 31.2-2.3 63.5-17.8 80.5-6.8 7.4-22 21.9-45.3 43.2-21.5-19.6-37.8-35-45.3-43.2-14.1-15.3-14.9-29.6-15.4-57.7-0.5-28.4-1.1-63.6-23.2-108.7C379.5 197.2 244 141.6 234.9 138c-12.4-5.3-37.3-14.1-66.5-14.1-34.2 0-64.7 12.4-88.1 35.8-23.8 23.8-36.1 54.8-35.7 89.7 0.3 28.6 8.9 52.9 14.1 64.9 3.7 9.1 59.2 144.6 146.4 187.3 45.1 22.1 80.4 22.7 108.7 23.2 28.2 0.5 42.4 1.3 57.7 15.4 7.5 6.9 21 21.1 38.3 40-25.9 22.9-52.4 46.1-78.1 68.8-61.1 53.7-109.4 96.1-121.8 108.6-18.8 18.8-29.3 40.6-30.6 63.2-1.3 23.9 7.9 46.4 26.5 65.1 17.5 17.5 38.4 26.7 60.6 26.7 1.5 0 3 0 4.5-0.1 22.6-1.2 44.4-11.8 63.2-30.6 12.5-12.5 54.8-60.6 108.4-121.6 20.9-23.8 42.4-48.2 63.6-72.3 21.4 24.2 43.1 48.9 63.5 72.1 53.7 61.1 96.1 109.3 108.5 121.8 19.8 19.8 43.8 30.7 67.5 30.7 22.3 0 43.3-9.2 60.7-26.7 18.7-18.7 27.9-41.2 26.5-65.1-1.1-23-11.7-44.8-30.4-63.6zM411 732.1c-48.9 55.6-95 108.1-106.5 119.6-11.3 11.3-23.7 17.7-35.8 18.3-11.8 0.7-22.9-4.2-33.1-14.3-10.1-10.1-15-21.3-14.3-33.1 0.7-12.1 7-24.4 18.3-35.8 11.5-11.5 64.1-57.8 119.9-106.7C385.4 657.4 412 634 438 611c12.5 13.9 26 29.1 40 44.9-22.3 25.3-45 51.1-67 76.2z m365.7 123.7c-9.5 9.5-20 14.4-31 14.4-12.7 0-25.8-6.4-37.9-18.4-11.5-11.5-57.7-64.1-106.7-119.8-81.5-92.9-174-198.1-201.1-223-27.8-25.5-57.1-26-85.4-26.5-26.7-0.5-54.3-0.9-91-18.9-73.7-36.1-125.5-164.1-126-165.4-0.1-0.2-0.2-0.4-0.2-0.6-26.8-62.1 2.9-98.8 12.7-108.6 15.6-15.6 35.2-23.5 58.4-23.5 22.8 0 42.7 7.5 50.2 10.8 0.2 0.1 0.4 0.2 0.6 0.2 0.3 0.1 32.9 13.2 70 35.8 47.7 29.1 80.7 60.3 95.4 90.2 18 36.7 18.4 64.3 18.9 91 0.5 28.4 1 57.7 26.5 85.4 24.9 27.1 130 119.5 222.8 201 55.8 49 108.5 95.3 120 106.9 11.3 11.3 17.7 23.7 18.3 35.8 0.5 11.9-4.4 23-14.5 33.2z" fill="#333333" p-id="51761"></path></svg>