<?xml version="1.0" standalone="no"?><!DOCTYPE svg PUBLIC "-//W3C//DTD SVG 1.1//EN" "http://www.w3.org/Graphics/SVG/1.1/DTD/svg11.dtd"><svg t="1651670957054" class="icon" viewBox="0 0 1024 1024" version="1.1" xmlns="http://www.w3.org/2000/svg" p-id="2180" xmlns:xlink="http://www.w3.org/1999/xlink" width="200" height="200"><defs><style type="text/css">@font-face { font-family: feedback-iconfont; src: url("//at.alicdn.com/t/font_1031158_u69w8yhxdu.woff2?t=1630033759944") format("woff2"), url("//at.alicdn.com/t/font_1031158_u69w8yhxdu.woff?t=1630033759944") format("woff"), url("//at.alicdn.com/t/font_1031158_u69w8yhxdu.ttf?t=1630033759944") format("truetype"); }
</style></defs><path d="M772 707.063c0 1.943-0.08 3.939-0.422 5.937h43.376c6.812 0 8.045 1.422 8.045-5.936v-263.84l-51 17.602v246.237zM320 490.916V698h422V471.18l-232.417 80.216z" fill="#FCDE9E" p-id="2181"></path><path d="M960.166 395.883l-445.93-170.072L63.172 408.984 238 464.756v242.307c0 8.078 3.893 14.75 10.681 18.303 4.646 2.433 9.502 2.744 13.214 2.744 1.068 0 2.168-0.029 3.273-0.061 0.826-0.024 1.655-0.05 2.467-0.05h481.038c0.855 0 1.607 0.03 2.267 0.055 0.849 0.032 1.604 0.056 2.276 0.056 8.513 0 13.104-4.161 15.455-7.652 1.631-2.421 2.477-4.941 2.907-7.458 0.342-1.998 0.422-3.994 0.422-5.937V460.826l51-17.602 39-13.46V778c0 8.284 6.716 15 15 15s15-6.716 15-15V419.409l68.166-23.526zM509.211 519.788L151.254 405.594 514.58 258.05l354.527 135.212a15.055 15.055 0 0 0-4.071 3.717L509.211 519.788zM742 698H268V474.327l52 16.589 189.583 60.48L742 471.18V698z" fill="#58A80A" p-id="2182"></path></svg>