<?xml version="1.0" standalone="no"?><!DOCTYPE svg PUBLIC "-//W3C//DTD SVG 1.1//EN" "http://www.w3.org/Graphics/SVG/1.1/DTD/svg11.dtd"><svg t="1651373738728" class="icon" viewBox="0 0 1024 1024" version="1.1" xmlns="http://www.w3.org/2000/svg" p-id="16780" xmlns:xlink="http://www.w3.org/1999/xlink" width="200" height="200"><defs><style type="text/css">@font-face { font-family: feedback-iconfont; src: url("//at.alicdn.com/t/font_1031158_u69w8yhxdu.woff2?t=1630033759944") format("woff2"), url("//at.alicdn.com/t/font_1031158_u69w8yhxdu.woff?t=1630033759944") format("woff"), url("//at.alicdn.com/t/font_1031158_u69w8yhxdu.ttf?t=1630033759944") format("truetype"); }
</style></defs><path d="M512.35 967.58c-193.71 0-351.28-157.58-351.28-351.28 0-19.32 9.18-198.51 326.67-537.22 12.78-13.61 36.44-13.61 49.22 0C854.45 417.79 863.63 597 863.63 616.3c0 193.7-157.58 351.28-351.28 351.28z m0-815.46C415 261.09 228.51 494.75 228.51 616.3c0 156.52 127.32 283.84 283.84 283.84S796.19 772.82 796.19 616.3c0-121.55-186.44-355.21-283.84-464.18z" fill="#0C5AE5" p-id="16781"></path><path d="M437.69 765a33.71 33.71 0 0 1-28-52.42l93-139.53h-86.3a33.72 33.72 0 0 1-28.05-52.42l128-191.93a33.72 33.72 0 1 1 56.11 37.41l-93 139.51h86.29A33.72 33.72 0 0 1 593.72 558l-128 192a33.69 33.69 0 0 1-28.03 15z" fill="#85A5FF" p-id="16782"></path></svg>