<?xml version="1.0" standalone="no"?><!DOCTYPE svg PUBLIC "-//W3C//DTD SVG 1.1//EN" "http://www.w3.org/Graphics/SVG/1.1/DTD/svg11.dtd"><svg t="1651671705585" class="icon" viewBox="0 0 1024 1024" version="1.1" xmlns="http://www.w3.org/2000/svg" p-id="20454" xmlns:xlink="http://www.w3.org/1999/xlink" width="200" height="200"><defs><style type="text/css">@font-face { font-family: feedback-iconfont; src: url("//at.alicdn.com/t/font_1031158_u69w8yhxdu.woff2?t=1630033759944") format("woff2"), url("//at.alicdn.com/t/font_1031158_u69w8yhxdu.woff?t=1630033759944") format("woff"), url("//at.alicdn.com/t/font_1031158_u69w8yhxdu.ttf?t=1630033759944") format("truetype"); }
</style></defs><path d="M958.539852 708.342519c8.628148 0 16.260741-6.219852 17.739852-15.018667 9.671111-57.325037-2.806519-106.164148-37.101037-145.180445-51.162074-58.206815-148.840296-93.297778-298.590815-107.264-122.842074-11.45363-257.564444-6.257778-355.934815-2.465185-35.688296 1.374815-66.512593 2.569481-91.050667 2.778074-80.279704 0.70163-105.197037-8.315259-112.279703-12.316444 1.223111-1.384296 2.778074-2.825481 3.802074-3.555556 8.12563-5.745778 10.059852-16.981333 4.314074-25.106963s-16.981333-10.059852-25.106963-4.314074c-12.47763 8.817778-24.993185 25.514667-19.181037 43.529482 6.788741 21.039407 34.038519 27.629037 42.989037 29.790815 23.61837 5.707852 59.20237 8.410074 105.784889 7.992888 25.078519-0.218074 56.149333-1.412741 92.122074-2.806518 97.365333-3.754667 230.72237-8.903111 351.203555 2.332444 138.211556 12.885333 230.693926 44.913778 274.87763 95.175111 27.154963 30.890667 36.522667 68.636444 28.634074 115.399112-1.659259 9.813333 4.958815 19.105185 14.762667 20.764444 1.014519 0.180148 2.019556 0.265481 3.015111 0.265482zM79.578074 431.407407z" fill="#2081DA" p-id="20455"></path><path d="M618.116741 411.306667c-42.268444-30.776889-90.842074-41.595259-144.374519-32.142223-41.016889 7.23437-69.774222 24.225185-70.058666 24.395852l-18.593186-30.862222c1.355852-0.815407 33.782519-20.167111 80.981334-28.766815 63.184593-11.510519 123.098074 1.716148 173.255111 38.248297l-21.210074 29.127111z" fill="#FE9B30" p-id="20456"></path><path d="M64.597333 708.740741c-8.628148 0-16.260741-6.219852-17.739852-15.018667-9.671111-57.325037 2.806519-106.164148 37.101038-145.180444 51.162074-58.206815 148.840296-93.297778 298.590814-107.264 122.842074-11.45363 257.564444-6.257778 355.934815-2.465186 35.688296 1.374815 66.512593 2.569481 91.050667 2.778075 80.279704 0.70163 105.197037-8.315259 112.279704-12.316445-1.223111-1.384296-2.778074-2.825481-3.802075-3.555555-8.12563-5.745778-10.059852-16.981333-4.314074-25.106963s16.981333-10.059852 25.106963-4.314075c12.47763 8.817778 24.993185 25.514667 19.181037 43.529482-6.788741 21.039407-34.038519 27.629037-42.989037 29.790815-23.61837 5.707852-59.20237 8.410074-105.784889 7.992889-25.078519-0.218074-56.149333-1.412741-92.122074-2.806519-97.365333-3.754667-230.72237-8.903111-351.203555 2.332445-138.211556 12.885333-230.693926 44.913778-274.87763 95.175111-27.154963 30.890667-36.522667 68.636444-28.634074 115.399111 1.659259 9.813333-4.958815 19.105185-14.762667 20.764444-1.005037 0.18963-2.019556 0.265481-3.015111 0.265482z m878.961778-276.935111z" fill="#2081DA" p-id="20457"></path><path d="M258.759111 354.683259c-106.875259 0-193.507556 71.262815-193.507555 159.175111 0 87.902815 86.632296 159.175111 193.507555 159.175111 106.865778 0 193.498074-71.262815 193.498074-159.175111s-86.632296-159.175111-193.498074-159.175111z" fill="#FFF688" opacity=".44" p-id="20458"></path><path d="M764.368593 354.683259c-106.875259 0-193.507556 71.262815-193.507556 159.175111 0 87.902815 86.632296 159.175111 193.507556 159.175111 106.865778 0 193.498074-71.262815 193.498074-159.175111s-86.632296-159.175111-193.498074-159.175111z" fill="#FFF688" opacity=".44" p-id="20459"></path><path d="M258.759111 691.038815c-55.855407 0-108.506074-18.014815-148.271407-50.725926-40.789333-33.545481-63.250963-78.459259-63.250963-126.464 0-48.004741 22.46163-92.918519 63.250963-126.464 39.765333-32.711111 92.425481-50.725926 148.271407-50.725926 55.845926 0 108.506074 18.014815 148.271408 50.725926 40.779852 33.545481 63.241481 78.459259 63.241481 126.464 0 48.004741-22.46163 92.918519-63.241481 126.464-39.765333 32.711111-92.425481 50.725926-148.271408 50.725926z m0-318.340741c-96.768 0-175.492741 63.326815-175.492741 141.160296 0 77.833481 78.724741 141.160296 175.492741 141.160297 96.758519 0 175.483259-63.326815 175.483259-141.160297 0-77.842963-78.724741-141.160296-175.483259-141.160296zM764.122074 691.038815c-55.855407 0-108.506074-18.014815-148.271407-50.725926-40.789333-33.545481-63.250963-78.459259-63.250963-126.464 0-48.004741 22.46163-92.918519 63.250963-126.464 39.765333-32.711111 92.425481-50.725926 148.271407-50.725926 55.845926 0 108.506074 18.014815 148.271407 50.725926 40.779852 33.545481 63.241481 78.459259 63.241482 126.464 0 48.004741-22.46163 92.918519-63.241482 126.464-39.765333 32.711111-92.425481 50.725926-148.271407 50.725926z m0-318.340741c-96.768 0-175.492741 63.326815-175.492741 141.160296 0 77.833481 78.724741 141.160296 175.492741 141.160297 96.758519 0 175.483259-63.326815 175.483259-141.160297 0-77.842963-78.724741-141.160296-175.483259-141.160296z" fill="#FFAB17" p-id="20460"></path></svg>