<?xml version="1.0" standalone="no"?><!DOCTYPE svg PUBLIC "-//W3C//DTD SVG 1.1//EN" "http://www.w3.org/Graphics/SVG/1.1/DTD/svg11.dtd"><svg t="1651305284957" class="icon" viewBox="0 0 1024 1024" version="1.1" xmlns="http://www.w3.org/2000/svg" p-id="14571" xmlns:xlink="http://www.w3.org/1999/xlink" width="200" height="200"><defs><style type="text/css">@font-face { font-family: feedback-iconfont; src: url("//at.alicdn.com/t/font_1031158_u69w8yhxdu.woff2?t=1630033759944") format("woff2"), url("//at.alicdn.com/t/font_1031158_u69w8yhxdu.woff?t=1630033759944") format("woff"), url("//at.alicdn.com/t/font_1031158_u69w8yhxdu.ttf?t=1630033759944") format("truetype"); }
</style></defs><path d="M0 0h1024v1024H0z" fill="#FFFFFF" p-id="14572"></path><path d="M0 0h1024v1024H0z" fill="#FFFFFF" p-id="14573"></path><path d="M304 512a16 16 0 0 1 15.744 13.12l0.256 2.88v416a32 32 0 0 1-28.256 31.776l-3.744 0.224h-160a16 16 0 0 1-2.88-31.744l2.88-0.256h160v-416a16 16 0 0 1 16-16zM608 544a16 16 0 0 1 15.744 13.12l0.256 2.88v384a32 32 0 0 1-28.256 31.776l-3.744 0.224h-160a16 16 0 0 1-2.88-31.744l2.88-0.256h160v-384a16 16 0 0 1 16-16zM912 352a16 16 0 0 1 15.744 13.12l0.256 2.88v576a32 32 0 0 1-28.256 31.776l-3.744 0.224h-160a16 16 0 0 1-2.88-31.744l2.88-0.256h160v-576a16 16 0 0 1 16-16z" fill="#FFF3B2" p-id="14574"></path><path d="M80 480m16 0l160 0q16 0 16 16l0 416q0 16-16 16l-160 0q-16 0-16-16l0-416q0-16 16-16Z" fill="#FFD345" p-id="14575"></path><path d="M384 512m16 0l160 0q16 0 16 16l0 384q0 16-16 16l-160 0q-16 0-16-16l0-384q0-16 16-16Z" fill="#FFD345" p-id="14576"></path><path d="M688 320m16 0l160 0q16 0 16 16l0 576q0 16-16 16l-160 0q-16 0-16-16l0-576q0-16 16-16Z" fill="#FFD345" p-id="14577"></path><path d="M722.624 156.256a24 24 0 0 1 36.256 31.264l-2.304 2.688-173.472 173.44a56 56 0 0 1-75.2 3.648l-4-3.616-121.088-121.12a8 8 0 0 0-9.6-1.28l-1.728 1.28-170.528 170.56a24 24 0 0 1-36.256-31.264l2.336-2.72 170.528-170.496a56 56 0 0 1 75.2-3.648l3.968 3.648 121.12 121.088a8 8 0 0 0 9.6 1.28l1.696-1.28 173.472-173.44z" fill="#FFF3B2" p-id="14578"></path><path d="M833.696 80L777.152 249.664 664 136.576z" fill="#FFF3B2" p-id="14579"></path><path d="M706.624 140.256a24 24 0 0 1 36.256 31.264l-2.304 2.688-173.472 173.44a56 56 0 0 1-75.2 3.648l-4-3.616-121.088-121.12a8 8 0 0 0-9.6-1.28l-1.728 1.28-170.528 170.56a24 24 0 0 1-36.256-31.264l2.336-2.72 170.528-170.496a56 56 0 0 1 75.2-3.648l3.968 3.648 121.12 121.088a8 8 0 0 0 9.6 1.28l1.696-1.28 173.472-173.44z" fill="#FFD345" p-id="14580"></path><path d="M817.696 64L761.152 233.664 648 120.576z" fill="#FFD345" p-id="14581"></path></svg>