<?xml version="1.0" standalone="no"?><!DOCTYPE svg PUBLIC "-//W3C//DTD SVG 1.1//EN" "http://www.w3.org/Graphics/SVG/1.1/DTD/svg11.dtd"><svg t="1651671109753" class="icon" viewBox="0 0 1026 1024" version="1.1" xmlns="http://www.w3.org/2000/svg" p-id="4597" xmlns:xlink="http://www.w3.org/1999/xlink" width="200.390625" height="200"><defs><style type="text/css">@font-face { font-family: feedback-iconfont; src: url("//at.alicdn.com/t/font_1031158_u69w8yhxdu.woff2?t=1630033759944") format("woff2"), url("//at.alicdn.com/t/font_1031158_u69w8yhxdu.woff?t=1630033759944") format("woff"), url("//at.alicdn.com/t/font_1031158_u69w8yhxdu.ttf?t=1630033759944") format("truetype"); }
</style></defs><path d="M464.943667 919.494475a206.899932 206.899932 0 0 0-51.007055-53.195025l-6.153667-3.418704a38.15273 38.15273 0 0 1-3.965696-2.051222l-9.435621-4.239192-3.418703-1.504229-1.914474-0.820489-6.153667-3.008459-1.504229 7.657895v0.957237a15.999532 15.999532 0 0 1-0.683741 2.734963v1.777726c0 1.50423-0.957237 3.145207-1.504229 4.649437a27.349627 27.349627 0 0 1-1.093985 3.008459v0.957237a37.605738 37.605738 0 0 1-2.051222 4.922933l-2.187971 3.828947a51.827544 51.827544 0 0 1-2.734962 4.649437l-2.598215 3.6922-3.281955 4.37594-3.145207 3.6922-3.828948 4.102444-3.555452 3.418703c-1.50423 1.367481-2.871711 2.598215-4.512688 3.828948l-3.965696 3.281956-4.786185 3.555451-4.375941 3.008459-5.333177 3.145207-4.786185 2.734963c-1.914474 0.957237-3.828948 2.051222-5.743421 2.871711h-0.683741l-4.375941 2.051222-6.290414 2.598215h-0.820489l-4.37594 1.640977-6.837407 2.324719h-1.230733l-4.102444 1.230733-6.153666 1.504229h-2.871711l-3.6922 0.957237-6.563911 1.093985h-6.56391a75.348224 75.348224 0 0 1-7.794644 0.820489h-37.742486l-9.025377-0.957237h-6.427162l-6.837407-1.230733-3.555452-0.957237h-2.324718l-6.837407-1.640978-3.965696-1.230733h-1.914474l-6.290414-2.051222-4.375941-1.640978h-1.093985l-6.016918-2.461466a54.699255 54.699255 0 0 1-4.922933-2.461467 46.767863 46.767863 0 0 1-5.88017-2.87171 51.827544 51.827544 0 0 1-4.649436-2.734963c-1.914474-0.957237-3.6922-2.051222-5.469926-3.145207l-6.837407-2.734963-4.922933-3.555452-3.965696-3.281955c-1.50423-1.230733-3.008459-2.461466-4.37594-3.828948L117.740146 902.537706l-3.828948-4.102444-3.008459-3.6922c-1.230733-1.367481-2.324718-2.871711-3.692199-4.649436l-2.324719-3.418704-2.734962-4.649436-1.777726-3.145208c0-1.640978-1.367481-3.281955-2.18797-4.922932v-0.957237c0-1.093985-0.957237-2.051222-1.230734-3.008459s-0.957237-3.145207-1.504229-5.059682v-1.230733a21.879702 21.879702 0 0 1-0.683741-2.871711v-0.957237l-1.640977-7.521147-7.110904 2.871711-8.204888 3.418703L68.374069 861.513265l-3.418704 1.777726-4.512688 2.598214c-25.298405 14.495303-44.853389 56.203484-44.853389 56.203485v86.288075H464.943667z" fill="#01DEE9" p-id="4598"></path><path d="M464.943667 1023.970052H15.315791A15.315791 15.315791 0 0 1 0 1008.654261v-86.288075A15.45254 15.45254 0 0 1 1.50423 916.21252c2.18797-4.649437 22.426695-46.631115 51.007055-62.904143l4.922933-2.871711 3.692199-2.598215 8.204889-4.102444 9.162125-3.965696 7.384399-3.008459a15.589288 15.589288 0 0 1 20.922465 10.939851l1.367482 7.110903v3.008459L109.39851 861.513265c0 1.093985 0.683741 2.18797 0.957237 3.145207l1.230733 3.008459c0.820489 1.914474 1.367481 3.008459 1.914474 4.102444l1.230733 2.324719 0.683741 1.367481 1.914474 3.281955 1.777726 2.461467 3.145207 4.239192 2.598214 3.008459 3.555452 3.828948 3.008459 2.734963 3.6922 3.281955a33.229797 33.229797 0 0 0 3.418703 2.734963l4.512689 3.418703h0.820488l2.871711 1.914474 4.922933 3.008459 4.375941 2.461467 5.059681 2.598214h1.640977l3.008459 1.367482 5.19643 2.324718h1.367481l3.828948 1.504229 5.469925 1.777726 2.324719 0.683741a22.973687 22.973687 0 0 0 3.418703 1.093985l5.88017 1.504229H198.831792l4.922933 0.820489 4.512688 0.820489h3.008459L218.79702 929.887334h6.290414a199.242036 199.242036 0 0 0 25.571902 0h5.196429c2.734963 0 5.059681 0 7.384399-0.820489l6.016918-0.957237 5.88017-1.093985h3.145207l4.239193-0.957237 4.512688-1.230733 6.974155-2.187971 4.102444-1.367481 3.6922-1.367481h1.230733c1.777726 0 3.6922-1.367481 5.333178-2.187971l3.965696-1.777725 6.153666-3.145207 3.555451-2.051223h1.230734l4.239192-2.598214 3.281955-2.18797 4.786185-3.555452 3.418703-2.734963 3.965696-3.418703 3.145208-3.008459 3.145207-3.418704 2.734962-3.145207 2.734963-3.692199 2.324719-3.281956c0.820489-1.230733 1.50423-2.461466 2.18797-3.692199v-0.957237a16.273028 16.273028 0 0 0 1.093985-2.187971c0-1.230733 1.230733-2.598215 1.777726-3.828947v-1.367482l0.820488-1.914474c0-1.230733 0.820489-2.324718 1.093986-3.418703l0.957236-3.828948a5.059681 5.059681 0 0 1 0-1.230733l1.367482-7.110903a15.45254 15.45254 0 0 1 7.931392-10.666355 14.768799 14.768799 0 0 1 13.674814 0l12.717576 5.333177 9.982614 4.649437 5.88017 3.145207 5.196429 2.871711A221.531982 221.531982 0 0 1 478.618481 911.016091a15.862784 15.862784 0 0 1 2.598214 8.478384v89.159786A15.315791 15.315791 0 0 1 464.943667 1023.970052zM30.631583 993.338469h419.406537v-68.374068a180.370793 180.370793 0 0 0-43.34916-44.716641l-4.512688-2.461467L396.569598 875.188079l-4.239192-2.051222v1.777725c0 0.957237-0.957237 2.18797-1.367481 3.418704l-0.683741 1.640978c-0.683741 1.50423-1.50423 3.555452-2.461467 5.333177l-1.914474 3.6922v0.820488c-1.093985 2.051222-2.18797 3.828948-3.281955 5.606674s-2.051222 3.008459-3.145207 4.37594-2.324718 3.281955-3.6922 5.059682l-3.692199 4.239192-4.239193 4.512688a57.98121 57.98121 0 0 1-4.239192 4.102444l-4.922933 4.375941-4.37594 3.418703-5.333178 3.965696-4.922933 3.281956-5.059681 3.145207h-0.957237l-5.059681 2.871711c-2.324718 1.230733-4.37594 2.324718-6.56391 3.281955l-5.469926 2.598215-6.974155 2.87171-5.469925 2.187971-5.059681 1.640977-8.06814 2.461467-5.743422 1.504229-4.102444 0.957237-4.102444 0.957237-7.247652 1.367482-6.837407 1.093985c-2.871711 0-5.88017 0-8.615132 0.820488h-5.196429a212.643354 212.643354 0 0 1-30.905079 0h-6.427163a82.048882 82.048882 0 0 1-8.341636-0.820488h-3.965696l-4.375941-0.683741-6.290414-1.777726-4.37594-0.957237h-2.187971l-7.247651-1.777726-3.6922-1.230733-2.734962-0.820489-6.700659-2.18797-5.059681-1.914474h-1.093985l-6.427163-2.734963-3.281955-2.87171-1.367481-0.820489-6.563911-3.145207-3.6922-2.051222-1.367481-0.957237c-2.051222-1.230733-4.102444-2.324718-6.016918-3.6922L126.902271 929.887334h-0.957237l-5.606673-4.102444-4.375941-3.418704-4.922933-4.37594-4.102444-3.965696-4.512688-4.786185-3.281955-3.965696c-1.50423-1.777726-2.734963-3.418703-4.375941-5.606674s-1.777726-2.598215-2.734963-4.102444-1.777726-2.871711-2.598214-4.239192L88.476045 888.862892c-0.820489-1.367481-1.50423-2.871711-2.18797-4.239192a31.315323 31.315323 0 0 1-2.187971-4.786185l-0.68374-1.640977v-1.230733a19.554984 19.554984 0 0 1-1.367482-3.145208 5.743422 5.743422 0 0 1 0-1.367481l-6.974155 2.734963-3.281955 1.640977-3.418703 2.598215a124.030561 124.030561 0 0 0-37.195494 46.494367z" fill="#484F59" p-id="4599"></path><path d="M99.82614 847.838451l7.110903-2.18797 2.461467-0.820489 8.204888-2.324718h1.777726l9.162125-2.324718h0.820489a427.064433 427.064433 0 0 1 43.212411-7.931392 86.151327 86.151327 0 0 1-0.957237-12.170585V767.15705a101.603866 101.603866 0 0 0 127.722761 0v52.101041a86.151327 86.151327 0 0 1-0.957237 12.170584 436.500054 436.500054 0 0 1 43.349159 8.06814l9.57237 2.598215h1.230733l8.615133 2.461466h1.777725a246.830388 246.830388 0 0 1 52.237789 22.563443l-38.973219-261.462439c-14.768799-82.869371-77.946438-133.876426-140.713834-133.876426S109.39851 522.788129 94.766459 605.6575L55.382996 867.940427a230.147115 230.147115 0 0 1 41.024441-19.007991z" fill="#B7BEC0" p-id="4600"></path><path d="M55.382996 883.119471a16.13628 16.13628 0 0 1-8.615133-2.461467 15.862784 15.862784 0 0 1-6.563911-15.042295l39.383464-262.282927c15.315791-85.330838 80.818149-146.867499 155.892876-146.8675s140.577085 61.536662 155.756129 146.457255c13.674814 87.929052 26.255642 175.311112 39.520212 262.693172a15.589288 15.589288 0 0 1-6.837407 15.042295 15.179043 15.179043 0 0 1-16.273029 0 225.36093 225.36093 0 0 0-49.092581-21.059213h-0.957237l-8.751881-2.598214 2.734963-15.042296-4.102444 14.632051-7.3844-1.914474h-1.367481a400.261798 400.261798 0 0 0-41.981678-7.794644 15.042295 15.042295 0 0 1-13.674814-17.367013 65.36561 65.36561 0 0 0 0.820489-9.982614V794.506678a118.423887 118.423887 0 0 1-97.091177 0v24.888161a74.801231 74.801231 0 0 0 0.820488 10.119362 15.315791 15.315791 0 0 1-13.674813 17.230265 397.800331 397.800331 0 0 0-41.024442 7.657896l-9.845865 2.324718h-1.50423l-7.794644 2.18797-2.734963 0.820489-8.888628 3.008459a208.267413 208.267413 0 0 0-39.109968 17.777258 15.862784 15.862784 0 0 1-7.657895 2.598215z m289.632554-58.528203h2.734963l8.06814 2.18797h1.50423l8.751881 2.461467h1.230733c10.25611 3.281955 19.82848 6.700659 28.717109 10.392858q-17.503762-116.509413-35.007524-232.471833c-13.674814-79.177172-73.843994-120.748605-125.53479-120.748606s-111.449732 41.024441-125.671538 121.15885l-35.007523 232.471833q8.204888-3.555452 17.230265-6.56391l10.119363-3.418704h2.734962l7.657896-2.18797H115.415428l9.572369-2.461466c10.25611-2.461466 20.648969-4.512689 31.315324-6.290415v-51.964292a15.315791 15.315791 0 0 1 24.888161-11.897088 86.971815 86.971815 0 0 0 54.699255 19.14474 84.783845 84.783845 0 0 0 54.699255-19.14474 15.315791 15.315791 0 0 1 16.273028-1.914474 15.042295 15.042295 0 0 1 8.615133 13.674814v51.280552c9.57237 2.18797 19.691732 3.828948 29.537597 6.290414z" fill="#484F59" p-id="4601"></path><path d="M298.384436 831.565423a89.706778 89.706778 0 0 0 0.957237-12.307332V767.15705a101.603866 101.603866 0 0 1-127.722761 0v52.101041a89.706778 89.706778 0 0 0 0.957237 12.307332 371.134445 371.134445 0 0 0-82.048882 19.554984c4.786185 53.058277 68.374069 95.723696 144.816277 95.723696s140.030093-42.118426 144.816278-95.723696a372.91217 372.91217 0 0 0-81.775386-19.554984z" fill="#F1FAFC" p-id="4602"></path><path d="M235.480292 961.612902c-84.236853 0-154.525395-47.861848-160.132068-109.39851a15.315791 15.315791 0 0 1 9.845866-15.726036 372.22843 372.22843 0 0 1 71.109031-18.460999V767.15705a15.315791 15.315791 0 0 1 24.888161-11.897088 86.971815 86.971815 0 0 0 54.699255 19.14474 84.783845 84.783845 0 0 0 54.699255-19.14474 15.315791 15.315791 0 0 1 16.273028-1.914474 15.042295 15.042295 0 0 1 8.615133 13.674814v51.280552a369.219971 369.219971 0 0 1 71.109031 18.460998 15.179043 15.179043 0 0 1 9.845866 15.589288c-6.427162 61.263166-76.715705 109.261762-160.952558 109.261762zM108.031028 861.513265c11.76034 39.930456 64.681869 69.74155 127.449264 69.74155s115.688924-29.811094 127.312516-69.74155a363.750045 363.750045 0 0 0-66.459594-14.495303 15.315791 15.315791 0 0 1-10.256111-6.016918 15.042295 15.042295 0 0 1-2.871711-11.486843 65.36561 65.36561 0 0 0 0.820489-9.982614V794.506678a118.423887 118.423887 0 0 1-97.091177 0v24.888161a73.160253 73.160253 0 0 0 0.820489 10.119362 15.589288 15.589288 0 0 1-13.674814 17.367013A367.852489 367.852489 0 0 0 108.031028 861.513265zM338.041395 635.605342H92.578489a15.589288 15.589288 0 0 1-11.623592-5.333177 16.13628 16.13628 0 0 1-3.555451-12.307333l2.18797-14.63205c15.315791-85.330838 80.818149-146.867499 155.892876-146.8675s140.577085 61.536662 155.756129 146.457255c0.683741 4.922933 1.367481 9.298873 2.051222 13.674814v1.367481l-30.358087 4.649437v-1.367481l-2.051222-13.674814c-13.674814-79.177172-73.843994-120.748605-125.53479-120.748605s-109.39851 41.024441-124.987797 117.876894h227.685648z" fill="#484F59" p-id="4603"></path><path d="M133.876426 620.289551v68.374068a101.603866 101.603866 0 0 0 203.207732 0v-68.374068z" fill="#FFFFFF" p-id="4604"></path><path d="M235.480292 805.036284a117.056406 117.056406 0 0 1-116.919657-116.919657v-68.374069a15.315791 15.315791 0 0 1 15.315791-15.315791h203.207732a15.315791 15.315791 0 0 1 15.179044 15.315791v68.374069a116.919657 116.919657 0 0 1-116.78291 116.919657z m-86.288074-169.430942v52.511285a86.288075 86.288075 0 0 0 172.576149 0v-52.511285z" fill="#484F59" p-id="4605"></path><path d="M1010.568735 1008.654261c0-8.204888 1.914474-95.723696 0-108.031029s-16.273028-27.349627-36.511753-31.178575a994.979447 994.979447 0 0 0-396.569598 0c-20.238724 3.965696-36.648501 18.32425-36.511753 31.178575-2.051222 12.033836 0 98.048414 0 108.031029z" fill="#FFDC69" p-id="4606"></path><path d="M1025.61103 1023.970052H525.796588V1009.201253c0-0.820489-2.18797-91.074259 0-109.39851S546.992549 859.735539 574.342177 854.53911A1057.336598 1057.336598 0 0 1 775.498687 834.163638a1068.002952 1068.002952 0 0 1 201.430006 20.238724c27.349627 5.196429 48.135344 24.888161 48.955833 45.126885 2.051222 18.187502 0 105.843058 0 109.39851z m-470.140096-30.631583h440.192254c0-27.349627 1.093985-82.048882 0-90.25377v-2.461467A30.358086 30.358086 0 0 0 970.911775 884.486952a957.236961 957.236961 0 0 0-391.373169 0 30.905079 30.905079 0 0 0-24.067672 16.13628V902.537706c-1.093985 8.341636-0.546993 62.493899 0 90.800763z" fill="#484F59" p-id="4607"></path><path d="M830.744934 886.264678c1.777726-12.44408 3.555452-49.776322 5.333177-62.220403a42.528671 42.528671 0 0 0 20.648969-27.349627c1.367481-11.486844 2.598215-22.973687 3.965696-34.460531a9.57237 9.57237 0 0 0 6.153666 3.145208 9.982614 9.982614 0 0 0 11.0766-8.888629l5.469925-52.92153a9.982614 9.982614 0 0 0-8.888629-10.939851 9.709118 9.709118 0 0 0-5.88017 1.093986c1.230733-10.119362 2.324718-20.101976 3.555452-30.221339 0.957237-13.674814 7.657896-50.596811-18.871243-74.390986-38.426227-37.742486-123.073324-37.742486-161.636298 0-26.529139 23.794176-19.691732 60.579425-18.734495 74.390986 1.093985 10.119362 2.324718 20.101976 3.418703 30.221339a9.162125 9.162125 0 0 0-5.743422-1.093986 9.982614 9.982614 0 0 0-8.888629 10.939851l5.469926 52.92153a9.845866 9.845866 0 0 0 10.939851 8.888629 9.298873 9.298873 0 0 0 6.153666-3.145208l4.102444 34.460531a42.118426 42.118426 0 0 0 20.648969 27.349627c1.777726 12.44408 3.418703 49.776322 5.196429 62.220403l53.468522 47.314855z" fill="#FFFFFF" p-id="4608"></path><path d="M767.704043 948.895325a15.179043 15.179043 0 0 1-10.25611-3.828948l-53.331774-47.451604a15.315791 15.315791 0 0 1-5.059681-9.298873c-0.957237-6.700659-1.777726-19.007991-2.734963-31.999064 0-8.615133-1.230733-17.367013-1.777726-23.794176a53.468522 53.468522 0 0 1-21.469457-34.460531q-0.957237-8.751881-2.051222-18.050754a24.751413 24.751413 0 0 1-19.007991-22.01645l-5.469926-52.921529a24.341168 24.341168 0 0 1 5.469926-18.460999 27.349627 27.349627 0 0 1 7.384399-6.290414l-1.640978-15.042295v-5.333177c-1.640978-18.050754-5.333177-55.79324 24.341169-82.048883a130.731219 130.731219 0 0 1 90.937511-32.27256 130.320975 130.320975 0 0 1 91.484504 32.819553c29.127353 25.845398 25.571902 63.587884 23.794176 82.048882v4.649437c0 5.333177-1.093985 10.666355-1.777726 15.726036a27.349627 27.349627 0 0 1 7.521148 6.153666 25.435154 25.435154 0 0 1 5.469925 18.597747l-5.469925 53.058277A25.161657 25.161657 0 0 1 874.094094 779.464383c-0.820489 6.153666-1.50423 12.307332-2.324719 18.460998a51.827544 51.827544 0 0 1-21.332709 34.050286c0 6.427162-1.093985 15.179043-1.777726 23.657428-0.957237 13.674814-1.777726 25.435154-2.734963 32.135812a15.042295 15.042295 0 0 1-6.016918 10.119363l-63.040891 47.451603a15.315791 15.315791 0 0 1-9.162125 3.555452z m-38.973219-70.288543l39.793708 35.28102 47.861848-35.96476c0-6.427162 1.093985-15.179043 1.777726-23.794176 0.957237-13.674814 1.777726-25.435154 2.734962-32.135813a15.999532 15.999532 0 0 1 6.837407-10.803102 29.264101 29.264101 0 0 0 13.674814-15.726036c1.50423-12.033836 2.734963-23.383931 4.102444-34.870775a15.45254 15.45254 0 0 1 10.25611-12.854325 16.409776 16.409776 0 0 1 7.657896 0l3.965696-38.152731a15.999532 15.999532 0 0 1-7.247651-2.598214 15.179043 15.179043 0 0 1-6.700659-14.495303c1.230733-10.25611 2.324718-20.101976 3.555452-30.08459a41.024441 41.024441 0 0 1 0-4.786185c1.367481-15.042295 3.828948-40.340701-13.674814-56.47698a102.561103 102.561103 0 0 0-70.698787-24.477917 101.467118 101.467118 0 0 0-70.015047 23.930924C683.740687 616.734099 686.202153 642.716245 687.706383 657.0748v5.469925l3.418703 29.537598a15.179043 15.179043 0 0 1-6.700659 14.495302 16.956769 16.956769 0 0 1-7.247651 2.461467l3.965696 38.15273a16.13628 16.13628 0 0 1 7.657896 0 15.45254 15.45254 0 0 1 10.392858 12.854325c1.230733 11.486844 2.598215 22.836939 3.965696 34.323783a29.127353 29.127353 0 0 0 13.674814 16.273028 15.726036 15.726036 0 0 1 6.974155 10.803103c0.820489 6.700659 1.777726 19.144739 2.734963 32.135812 0.957237 9.57237 1.640978 18.734495 2.18797 25.024909z" fill="#484F59" p-id="4609"></path><path d="M797.651885 859.325295h-51.554048l-45.400381-22.700191 13.674813-27.349627 38.973219 19.418235h44.306397v30.631583z" fill="#484F59" p-id="4610"></path><path d="M990.603507 222.762716H535.095461v291.683777h301.392895v77.399445l77.399446-77.399445h76.715705V222.762716z" fill="#01DEE9" p-id="4611"></path><path d="M821.309313 629.041432v-99.279148H519.642922V207.446924h486.276376v322.31536H920.314964z m-270.89806-129.910731h300.845902v55.79324l55.79324-55.79324h68.374068V238.078507H550.411253z" fill="#484F59" p-id="4612"></path><path d="M318.076167 15.315791h567.641518V418.4493H530.993017l-106.937043 106.937044V418.4493h-105.979807V15.315791z" fill="#FFFFFF" p-id="4613"></path><path d="M408.740182 562.308341v-128.543249h-105.979806V0h598.273101v433.765092h-363.750046z m-75.348223-159.174832h105.979806v85.330837l85.19409-85.330837h345.836039V30.631583H333.391959z" fill="#484F59" p-id="4614"></path><path d="M782.883086 144.132537z" fill="#BAE5F8" p-id="4615"></path><path d="M420.910767 128.816745h361.972319v30.631583H420.910767z" fill="#484F59" p-id="4616"></path><path d="M782.883086 223.309708z" fill="#BAE5F8" p-id="4617"></path><path d="M420.910767 207.993917h361.972319v30.631583H420.910767z" fill="#484F59" p-id="4618"></path><path d="M782.883086 302.350132z" fill="#BAE5F8" p-id="4619"></path><path d="M420.910767 287.03434h361.972319v30.631583H420.910767z" fill="#484F59" p-id="4620"></path></svg>