<?xml version="1.0" standalone="no"?><!DOCTYPE svg PUBLIC "-//W3C//DTD SVG 1.1//EN" "http://www.w3.org/Graphics/SVG/1.1/DTD/svg11.dtd"><svg t="1651671211509" class="icon" viewBox="0 0 1024 1024" version="1.1" xmlns="http://www.w3.org/2000/svg" p-id="6198" xmlns:xlink="http://www.w3.org/1999/xlink" width="200" height="200"><defs><style type="text/css">@font-face { font-family: feedback-iconfont; src: url("//at.alicdn.com/t/font_1031158_u69w8yhxdu.woff2?t=1630033759944") format("woff2"), url("//at.alicdn.com/t/font_1031158_u69w8yhxdu.woff?t=1630033759944") format("woff"), url("//at.alicdn.com/t/font_1031158_u69w8yhxdu.ttf?t=1630033759944") format("truetype"); }
</style></defs><path d="M670.9 224.1c-67.2 0-126.4 33.6-159.9 86.4-33.6-52.8-92.8-86.4-159.9-86.4-105.6 0-191.9 86.4-191.9 191.9 0 190.3 351.9 383.9 351.9 383.9S862.9 608 862.9 416c0-105.5-86.4-191.9-192-191.9z" fill="#FFCDD2" p-id="6199"></path><path d="M97 497h191.3v32.6H97z" fill="#F44336" p-id="6200"></path><path d="M348.1 355.1l-59.9 173.2-30.8-10.6 90.7-206zM348.1 354.6L408 527.8l30.8-10.6-90.7-206zM531.8 669.4l59.9-173.2 30.8 10.6-90.7 206z" fill="#F44336" p-id="6201"></path><path d="M591.3 496.3H927v32.6H591.3zM531.8 668.9l-59.9-173.2-30.8 10.6 90.7 206z" fill="#F44336" p-id="6202"></path><path d="M408 496.3h65v32.6h-65z" fill="#F44336" p-id="6203"></path></svg>