<?xml version="1.0" standalone="no"?><!DOCTYPE svg PUBLIC "-//W3C//DTD SVG 1.1//EN" "http://www.w3.org/Graphics/SVG/1.1/DTD/svg11.dtd"><svg t="1653216128052" class="icon" viewBox="0 0 1024 1024" version="1.1" xmlns="http://www.w3.org/2000/svg" p-id="3170" xmlns:xlink="http://www.w3.org/1999/xlink" width="200" height="200"><defs><style type="text/css">@font-face { font-family: feedback-iconfont; src: url("//at.alicdn.com/t/font_1031158_u69w8yhxdu.woff2?t=1630033759944") format("woff2"), url("//at.alicdn.com/t/font_1031158_u69w8yhxdu.woff?t=1630033759944") format("woff"), url("//at.alicdn.com/t/font_1031158_u69w8yhxdu.ttf?t=1630033759944") format("truetype"); }
</style></defs><path d="M908.9 541L486 117.5a65.762 65.762 0 0 0-46.6-19.3H164c-36.4 0-66 29.5-66 66v276c0 17.5 6.9 34.2 19.3 46.6l421.9 422.4c25.7 25.7 67.4 25.8 93.2 0.1l276.4-274.9 0.1-0.1c25.7-25.8 25.7-67.5 0-93.3z m-580-112.6c-54.6 0-98.9-44.3-98.9-99.1 0-54.7 44.4-99 99.1-98.9 54.7 0 99 44.4 98.9 99.1-0.1 54.7-44.4 99-99.1 98.9z" p-id="3171"></path></svg>