<?xml version="1.0" standalone="no"?><!DOCTYPE svg PUBLIC "-//W3C//DTD SVG 1.1//EN" "http://www.w3.org/Graphics/SVG/1.1/DTD/svg11.dtd"><svg t="1652942904989" class="icon" viewBox="0 0 1658 1024" version="1.1" xmlns="http://www.w3.org/2000/svg" p-id="5145" xmlns:xlink="http://www.w3.org/1999/xlink" width="323.828125" height="200"><defs><style type="text/css">@font-face { font-family: feedback-iconfont; src: url("//at.alicdn.com/t/font_1031158_u69w8yhxdu.woff2?t=1630033759944") format("woff2"), url("//at.alicdn.com/t/font_1031158_u69w8yhxdu.woff?t=1630033759944") format("woff"), url("//at.alicdn.com/t/font_1031158_u69w8yhxdu.ttf?t=1630033759944") format("truetype"); }
</style></defs><path d="M116.303139 786.479504c0 112.412717 308.981404 203.530494 690.447511 203.735253 381.466107 0 690.857029-91.117776 691.061788-203.530494v-0.204759c0-112.412717-309.186163-203.530494-690.65227-203.530494-381.466107-0.204759-690.857029 90.913017-690.857029 203.530494z" fill="#EDE6D6" p-id="5146"></path><path d="M0 706.418716c0 12.080784 26.004399 21.909218 58.15157 21.909218s58.15157-9.828434 58.151569-21.909218c0-12.080784-26.004399-21.909218-58.151569-21.909218S0 694.542691 0 706.418716z m1512.35033 123.674465c0 15.971206 32.556689 29.075785 72.689462 29.075785s72.689462-12.89982 72.689462-29.075785c0-15.971206-32.556689-29.075785-72.689462-29.075784s-72.689462 12.89982-72.689462 29.075784z" fill="#EFEAD5" p-id="5147"></path><path d="M247.144171 227.896821v535.240152c0 17.814037 14.128374 33.170966 33.990002 37.061387l524.797441 103.40332V290.34833c-372.456709-47.29934-558.787443-68.184763-558.787443-62.451509z" fill="#FBE8D7" p-id="5148"></path><path d="M1358.576285 227.896821v535.240152c0 17.609278-14.128374 32.966207-33.785243 37.061387l-519.064187 103.608079-5.938013-613.458109c372.661468-47.29934 558.787443-68.184763 558.787443-62.451509z" fill="#E8C3A0" p-id="5149"></path><path d="M101.765247 426.308338l148.245551-211.925615 556.125575 67.980004-129.612478 253.082184-574.758648-109.136573z" fill="#FEF6EF" p-id="5150"></path><path d="M793.236553 278.472306L929.606079 532.987802l572.711058-116.917416-137.188563-203.735253L799.379324 278.472306h-6.142771z" fill="#F9DBC0" p-id="5151"></path><path d="M750.237153 159.09778h-32.556689c-44.023195 0-79.65127-35.628074-79.65127-79.651269C638.029194 35.628074 673.657269 0 717.680464 0h363.242551c44.023195 0 79.65127 35.628074 79.65127 79.65127s-35.628074 79.65127-79.65127 79.651269H827.226555" fill="#2878FF" opacity=".5" p-id="5152"></path><path d="M739.384923 108.727055c-15.971206 0.204759-29.280544-12.490302-29.690062-28.461508s12.490302-29.280544 28.461508-29.690062c15.971206-0.204759 29.280544 12.490302 29.485303 28.666267 0.409518 15.971206-12.285543 29.075785-28.256749 29.485303z m159.916817 0c-15.971206 0.204759-29.280544-12.490302-29.690062-28.461508s12.490302-29.280544 28.461507-29.690062c15.971206-0.204759 29.280544 12.490302 29.485303 28.666267 0.409518 15.971206-12.285543 29.075785-28.256748 29.485303z m159.916816 0c-15.971206 0-29.075785-13.104579-29.075785-29.075785s13.104579-29.075785 29.075785-29.075785c15.971206 0 29.075785 13.104579 29.075785 29.075785 0 15.971206-13.104579 29.075785-29.075785 29.075785z" fill="#FFFFFF" p-id="5153"></path><path d="M1042.428314 486.302739l2.661868-11.466506s-18.837832-15.561688-17.609278-33.170966c1.433313-17.609278 12.89982-28.256749 12.89982-28.256749h35.013797l-5.323735 59.380124 0.614277 10.033194-28.256749 3.480903z m43.20416 508.416717l0.614277 8.804639h12.080783l-2.04759-11.466507-10.64747 2.661868z" fill="#F6D0C3" p-id="5154"></path><path d="M1058.604279 1011.714457s1.433313-8.804639 7.371326-9.418916c5.323735-0.614277 26.413917 0.614277 32.351929 1.433313 0.614277 0 2.04759 0.614277 2.047591 2.047591v6.757048c0 1.433313-0.614277 2.04759-2.047591 2.047591H1058.604279v-2.866627z" fill="#333333" p-id="5155"></path><path d="M1021.542891 1004.138372l0.614278 8.804639h11.466506l-1.433313-11.466506-10.647471 2.661867z" fill="#F6D0C3" p-id="5156"></path><path d="M994.514697 1021.133373s1.433313-8.804639 7.371326-9.418916c5.323735-0.614277 26.413917 0.614277 32.351929 1.433313 0.614277 0 2.04759 0.614277 2.047591 2.047591v6.757049c0 1.433313-0.614277 2.04759-2.047591 2.04759h-39.928014v-2.866627z m89.889222-25.594881h13.514097l5.323736-143.126574c0-7.371326 1.433313-14.128374 2.661867-20.885423 6.757049-27.642472 21.704459-106.679464 17.609278-142.512298l-12.080783-20.885423-74.327535 4.095181s9.418916 87.022595 20.271146 121.422116c2.04759 6.757049 4.095181 13.514097 4.709458 20.271146l22.318736 181.621275z" fill="#333333" p-id="5157"></path><path d="M982.433913 663.214557l37.061388 342.971406h14.94741l7.371326-140.464707c0.614277-8.190362 2.04759-16.380724 4.095181-24.366327 8.190362-31.123375 30.304339-108.112777 28.256749-154.593081l-91.732054-23.547291z" fill="#3A3A3A" p-id="5158"></path><path d="M1144.39832 557.354129s12.080784 39.108978 10.85223 55.284943c-1.433313 14.128374-10.033193 51.394521-33.170966 56.103979l-0.614277-87.841631 21.704459-22.933014 1.228554-0.614277z m-180.802239 2.661868s-12.080784 39.108978-10.85223 55.284943c1.433313 14.128374 10.033193 51.394521 33.170966 56.103979l0.614277-87.841632-21.704459-22.933013-1.228554-0.614277z m74.122775-128.998201s6.142771-6.142771 10.85223-4.095181c5.323735 2.04759 6.142771 12.89982 3.276145 27.028195-2.661868 14.128374-15.561688-9.418916-15.561688-9.418916l1.433313-13.514098z" fill="#F6D0C3" p-id="5159"></path><path d="M1043.861628 427.741652c-4.095181 0.614277-8.804639-0.614277-11.466507-4.095181-4.095181-5.323735-8.804639-13.514097-4.095181-19.656869 7.371326-10.033193 27.642472-17.609278 45.866027-7.371326 18.223555 10.033193 20.271146 33.170966 20.271146 33.170966s-1.433313 41.770846-25.594881 41.770846h-6.142772c-2.661868 0-5.323735-2.04759-6.142771-4.095181-3.276145-8.804639-4.709458-18.223555-4.095181-27.642471v-6.142772c-0.614277-5.938012-4.504699-6.757049-8.59988-5.938012z" fill="#333333" p-id="5160"></path><path d="M1146.445911 557.968406c-16.995001-35.013797-46.480304-59.175365-60.813437-69.413317-3.890422-3.071386-6.961808-4.914217-8.190362-5.528494-4.709458-2.04759-27.642472 0-37.061388 2.04759-1.842831 0.409518-4.914217 2.25235-8.804639 4.709458-14.742651 8.59988-52.623075 33.170966-70.846631 70.846631l22.318736 36.447111 0.204759-0.20476-0.819036 73.918017c0 4.095181 2.04759 8.190362 5.323735 8.804639 71.665667 34.39952 121.422116 16.790242 134.321936 10.852229 2.04759-0.614277 4.095181-2.661868 4.095181-4.709458 3.685663-24.571086 3.071386-62.45151 1.023795-95.008198l19.247351-32.761448z" fill="#2878FF" p-id="5161"></path><path d="M250.010798 214.382723l466.85063 71.05139v-118.760248l-4.29994-0.409518z" fill="#E0BC9C" p-id="5162"></path><path d="M785.865227 289.119776l579.468106-76.784643L712.561488 166.264347V284.615077l73.303739 4.504699z" fill="#FBECDA" p-id="5163"></path></svg>