<?xml version="1.0" standalone="no"?><!DOCTYPE svg PUBLIC "-//W3C//DTD SVG 1.1//EN" "http://www.w3.org/Graphics/SVG/1.1/DTD/svg11.dtd"><svg t="1651664407649" class="icon" viewBox="0 0 1024 1024" version="1.1" xmlns="http://www.w3.org/2000/svg" p-id="5219" xmlns:xlink="http://www.w3.org/1999/xlink" width="200" height="200"><defs><style type="text/css">@font-face { font-family: feedback-iconfont; src: url("//at.alicdn.com/t/font_1031158_u69w8yhxdu.woff2?t=1630033759944") format("woff2"), url("//at.alicdn.com/t/font_1031158_u69w8yhxdu.woff?t=1630033759944") format("woff"), url("//at.alicdn.com/t/font_1031158_u69w8yhxdu.ttf?t=1630033759944") format("truetype"); }
</style></defs><path d="M632 52c120.208 0 218 97.792 218 218s-97.792 218-218 218-218-97.792-218-218S511.792 52 632 52z" fill="#FFD017" p-id="5220"></path><path d="M716 329.998c0-46.318-37.682-84-84-84-19.85 0-36-16.15-36-36s16.15-36 36-36c12.806 0 24.762 6.904 31.2 18.016a24.092 24.092 0 0 0 20.802 11.99c4.19 0 8.334-1.116 11.988-3.23 11.454-6.624 15.384-21.336 8.762-32.796-9.97-17.228-25.866-30.41-44.758-37.114L656 129.448V91.204c0-13.234-10.766-24-24-24s-24 10.766-24 24v38.192l-3.994 1.416C570.508 142.698 548 174.522 548 210.002 548 256.318 585.682 294 632 294c19.85 0 36 16.15 36 36s-16.15 36-36 36c-12.806 0-24.762-6.904-31.2-18.016a24.094 24.094 0 0 0-20.802-11.99c-4.188 0-8.334 1.116-11.986 3.23-11.454 6.624-15.384 21.336-8.762 32.796 9.97 17.228 25.866 30.408 44.758 37.114l3.994 1.418V447.6c0 13.234 10.766 24 24 24s24-10.766 24-24v-36.996l3.994-1.416C693.492 397.302 716 365.478 716 329.998z" p-id="5221"></path><path d="M632 6c-145.57 0-264 118.43-264 264s118.43 264 264 264 264-118.43 264-264S777.57 6 632 6z m0 480c-119.102 0-216-96.898-216-216S512.898 54 632 54s216 96.898 216 216-96.898 216-216 216zM1000.982 680.692c0.118-0.176 0.246-0.346 0.382-0.51C1012.262 665.558 1018 648.23 1018 630c0-46.318-37.682-84-84-84-23.006 0-45.25 9.592-61.07 26.328l-0.122 0.154-0.268 0.254-90.064 95.246-7.096 7.504-3.004-9.88c-5.13-16.868-15.762-32.042-29.936-42.728C727.79 611.836 710.348 606 692 606H521.056l-1.7-1.494-22.594-19.876c-37.154-32.698-85.014-50.706-134.764-50.706s-97.61 18.008-134.762 50.706l-22.592 19.876-1.7 1.496H30c-13.234 0-24 10.766-24 24v240c0 13.234 10.766 24 24 24h178.598l0.85 0.258c16.218 4.912 32.77 11.992 50.296 19.486l0.12 0.052C303.892 932.642 353.78 954 424.124 954H722c45.084 0 88.108-21.48 115.09-57.46l163.892-215.848z m-202.204 186.936C780.766 891.644 752.056 906 722 906H424.126c-60.52 0-103.658-18.468-145.378-36.328l-2.014-0.864C241.462 853.674 219.682 846 212 846H54v-192h158c9.378 0 12.936-2.95 32.766-20.724a1925.364 1925.364 0 0 1 14.176-12.616c28.418-25.006 65.018-38.778 103.058-38.778s74.64 13.772 103.058 38.778l31.086 27.36A23.986 23.986 0 0 0 512 654h180c19.85 0 36 16.15 36 36s-16.15 36-36 36H478.79c-13.234 0-24 10.766-24 24s10.766 24 24 24h233.32c23.182 0 45.558-9.72 61.39-26.666l133.86-141.556 0.158-0.21 0.296-0.272C914.682 598.01 923.972 594 934 594c19.85 0 36 16.15 36 36 0 7.158-2.056 13.982-5.968 19.864v4.096l-3.028 0.004-162.226 213.664z" p-id="5222"></path></svg>