<?xml version="1.0" standalone="no"?><!DOCTYPE svg PUBLIC "-//W3C//DTD SVG 1.1//EN" "http://www.w3.org/Graphics/SVG/1.1/DTD/svg11.dtd"><svg t="1651305044607" class="icon" viewBox="0 0 1024 1024" version="1.1" xmlns="http://www.w3.org/2000/svg" p-id="12999" xmlns:xlink="http://www.w3.org/1999/xlink" width="200" height="200"><defs><style type="text/css">@font-face { font-family: feedback-iconfont; src: url("//at.alicdn.com/t/font_1031158_u69w8yhxdu.woff2?t=1630033759944") format("woff2"), url("//at.alicdn.com/t/font_1031158_u69w8yhxdu.woff?t=1630033759944") format("woff"), url("//at.alicdn.com/t/font_1031158_u69w8yhxdu.ttf?t=1630033759944") format("truetype"); }
</style></defs><path d="M664.110545 282.59297A12.474182 12.474182 0 0 0 651.636364 270.134303H371.122424a12.474182 12.474182 0 0 0-12.474182 12.458667v311.078788h305.462303V282.577455z" fill="#F8D02D" p-id="13000"></path><path d="M392.905697 381.517576h81.345939l-69.632-69.725091a19.750788 19.750788 0 0 1 27.927273-27.927273l78.646303 78.739394 78.987636-79.080727a19.750788 19.750788 0 0 1 27.927273 27.942788l-69.973333 70.035394h81.656242c10.891636 0 19.735273 8.843636 19.735273 19.750787v0.031031c0 10.907152-8.843636 19.750788-19.735273 19.750788H531.083636v42.154666h98.707394c10.891636 0 19.735273 8.843636 19.735273 19.735273v0.046546c0 10.891636-8.843636 19.735273-19.735273 19.735272H531.083636v54.690909a19.735273 19.735273 0 1 1-39.48606 0v-54.690909h-98.691879c-10.907152 0-19.750788-8.843636-19.750788-19.735272v-0.046546c0-10.907152 8.843636-19.735273 19.750788-19.735273h98.691879v-42.154666h-98.691879c-10.907152 0-19.750788-8.843636-19.750788-19.750788v-0.031031c0-10.907152 8.843636-19.750788 19.750788-19.750787zM765.98303 637.672727H256.698182v115.153455c0 7.276606 5.895758 13.172364 13.156848 13.172363h482.986667c7.261091 0 13.141333-5.895758 13.141333-13.172363V637.672727z m0-266.488242a13.156848 13.156848 0 0 0-13.156848-13.156849h-40.804849v240.174546h53.961697V371.184485z m-93.432242-101.329455a13.156848 13.156848 0 0 0-13.156849-13.156848H363.287273a13.156848 13.156848 0 0 0-13.156849 13.156848v328.347152h322.420364V269.85503zM310.644364 358.027636h-40.804849a13.156848 13.156848 0 0 0-13.141333 13.156849v227.017697h53.946182V358.027636z m461.932606 447.441455H250.104242A32.892121 32.892121 0 0 1 217.212121 772.57697V351.449212c0-18.168242 14.739394-32.892121 32.892121-32.892121h60.540122V250.104242C310.644364 231.936 325.383758 217.212121 343.536485 217.212121h335.592727c18.168242 0 32.892121 14.739394 32.892121 32.892121v68.437334h60.555637c18.152727 0 32.892121 14.739394 32.892121 32.892121v421.143273a32.892121 32.892121 0 0 1-32.892121 32.892121z" fill="#333333" p-id="13001"></path></svg>