<?xml version="1.0" standalone="no"?><!DOCTYPE svg PUBLIC "-//W3C//DTD SVG 1.1//EN" "http://www.w3.org/Graphics/SVG/1.1/DTD/svg11.dtd"><svg t="1651373682498" class="icon" viewBox="0 0 1024 1024" version="1.1" xmlns="http://www.w3.org/2000/svg" p-id="15548" xmlns:xlink="http://www.w3.org/1999/xlink" width="200" height="200"><defs><style type="text/css">@font-face { font-family: feedback-iconfont; src: url("//at.alicdn.com/t/font_1031158_u69w8yhxdu.woff2?t=1630033759944") format("woff2"), url("//at.alicdn.com/t/font_1031158_u69w8yhxdu.woff?t=1630033759944") format("woff"), url("//at.alicdn.com/t/font_1031158_u69w8yhxdu.ttf?t=1630033759944") format("truetype"); }
</style></defs><path d="M512 164.4c-149.3 0-248.8 42.3-305.7 99.8 14.5 9.6 24.1 26 24.1 44.7 0 29.5-24 53.5-53.5 53.5-8.8 0-17.1-2.1-24.4-5.9-3.8 14.6-5.6 29.3-5.6 43.9v0.1c0 112.2 73.6 203.2 164.4 203.2h401.5c90.8 0 164.4-91 164.4-203.2v-0.1c0-112.3-109.8-236-365.2-236z" fill="#FF7F00" p-id="15549"></path><path d="M602.9 859.6H421.1l-21-363.9s21.1-69.5 111.9-69.5 111.9 69.5 111.9 69.5l-21 363.9z" fill="#FFDA00" p-id="15550"></path><path d="M795 859.6H602.8l21-363.9s21.1-69.5 111.9-69.5 111.9 69.5 111.9 69.5L795 859.6zM421.2 859.6H229l-52.5-363.9s21.1-69.5 111.9-69.5 111.9 69.5 111.9 69.5l20.9 363.9z" fill="#FFDA00" p-id="15551"></path><path d="M550.7 235.2c-11.1-0.8-22.2-1.3-32.9-1.5-13.3-0.2-24.2 10.3-24.4 23.6-0.2 13.3 10.3 24.2 23.6 24.4 9.9 0.2 20.1 0.6 30.4 1.4 0.6 0 1.1 0.1 1.7 0.1 12.5 0 23-9.7 23.9-22.3 0.9-13.3-9.1-24.8-22.3-25.7zM444.5 237.4c-56.7 7.1-105 24-143.5 50.2-11 7.5-13.8 22.4-6.3 33.3 4.6 6.8 12.2 10.5 19.9 10.5 4.7 0 9.4-1.4 13.5-4.2 32.1-21.9 73.3-36.1 122.4-42.3 13.2-1.6 22.5-13.6 20.8-26.8s-13.6-22.4-26.8-20.7z" fill="#301207" p-id="15552"></path><path d="M877.3 305.1c-16.6-31.8-41-60-72.5-83.9-69.8-52.8-171-80.8-292.8-80.8-73.5 0-139.2 10-195.4 29.7-51.7 18.1-94.6 44.1-127.4 77.2-5.1 5.1-7.6 12.2-6.8 19.4 0.8 7.1 4.7 13.6 10.7 17.6 8.3 5.5 13.3 14.7 13.3 24.6 0 16.3-13.2 29.5-29.5 29.5-4.7 0-9.3-1.1-13.5-3.2-6.5-3.3-14.2-3.6-20.8-0.6-6.7 3-11.6 8.8-13.4 15.9-4.2 16.4-6.4 33.2-6.4 49.9 0 47.8 12.1 93.4 34.6 131.6l47.8 331c1.7 11.8 11.8 20.6 23.8 20.6h566c11.9 0 22.1-8.8 23.8-20.6l47.8-331c22.5-38.2 34.6-83.8 34.6-131.6 0-32.5-8.3-65.4-23.9-95.3zM249.8 835.6l-34.5-239.4-11.7-80.9-2.4-16.9c5.7-12.4 27.3-48.3 87.2-48.3 30 0 53.9 8.7 71.2 25.9 9.9 9.8 14.9 19.9 16.8 24.4l4.6 79.2 2.8 48 12 207.9h-146z m345.1-255.9l-2.8 48-12 207.9H443.9l-12-207.9-2.8-48-4.6-80.5c5.1-11.7 26.4-49 87.6-49 30 0 53.9 8.7 71.2 25.9 9.1 9.1 14.1 18.4 16.3 23.3l-4.7 80.3z m225.6-64.3l-11.7 80.9-34.5 239.4h-146l12-207.9 2.8-48 4.6-79.4c4.2-10.2 24.8-50.1 88-50.1 30 0 53.9 8.7 71.2 25.9 8.7 8.6 13.6 17.5 16 22.6l-2.4 16.6z m27.3-65.7c-1.5-1.8-3.1-3.5-4.8-5.3-18.4-19.2-51.9-42.2-107.3-42.2s-88.9 22.9-107.3 42.2c-1.6 1.7-3.1 3.3-4.5 5-1.4-1.7-2.9-3.3-4.5-5-18.4-19.2-52-42.2-107.3-42.2s-88.9 22.9-107.3 42.2c-1.6 1.7-3.1 3.3-4.5 5-1.4-1.7-2.9-3.3-4.5-5-18.4-19.2-52-42.2-107.3-42.2-55.4 0-88.9 22.9-107.3 42.2-1.7 1.8-3.3 3.5-4.8 5.3-3.5-15.7-5.4-32.2-5.4-49.3 0-4.7 0.2-9.4 0.7-14.2 1.8 0.1 3.6 0.2 5.4 0.2 42.7 0 77.5-34.8 77.5-77.5 0-15.9-4.8-31.1-13.5-43.7 25-20.5 55.7-37.2 91.6-49.8 51.1-17.9 111.5-27 179.5-27 111.3 0 202.5 24.6 263.9 71 25.8 19.5 45.6 42.3 58.9 67.8 12.2 23.4 18.4 48 18.4 73.2-0.2 17.1-2.1 33.6-5.6 49.3z" fill="#301207" p-id="15553"></path></svg>