<?xml version="1.0" standalone="no"?><!DOCTYPE svg PUBLIC "-//W3C//DTD SVG 1.1//EN" "http://www.w3.org/Graphics/SVG/1.1/DTD/svg11.dtd"><svg t="1651671483833" class="icon" viewBox="0 0 1024 1024" version="1.1" xmlns="http://www.w3.org/2000/svg" p-id="9303" xmlns:xlink="http://www.w3.org/1999/xlink" width="200" height="200"><defs><style type="text/css">@font-face { font-family: feedback-iconfont; src: url("//at.alicdn.com/t/font_1031158_u69w8yhxdu.woff2?t=1630033759944") format("woff2"), url("//at.alicdn.com/t/font_1031158_u69w8yhxdu.woff?t=1630033759944") format("woff"), url("//at.alicdn.com/t/font_1031158_u69w8yhxdu.ttf?t=1630033759944") format("truetype"); }
</style></defs><path d="M296 163.1c-55.1 0-99.7 108.7-99.7 170.5 0 55 35.4 87.5 82 94l-7.2 433.2h49.8l-7.2-433.2c46.6-6.5 82-39 82-94 0-61.8-44.6-170.5-99.7-170.5z" fill="#F4513B" p-id="9304"></path><path d="M487.1 171.4v681.2h33.2V669.8h83.1l-83.1-498.4z" fill="#FFCF48" p-id="9305"></path><path d="M811.1 163.1c-9.2 0-16.6 7.4-16.6 16.6v99.7c0 9.2-7.4 16.6-16.6 16.6s-16.6-7.4-16.6-16.6v-99.7c0-9.2-7.4-16.6-16.6-16.6s-16.6 7.4-16.6 16.6v99.7c0 9.2-7.4 16.6-16.6 16.6-9.2 0-16.6-7.4-16.6-16.6v-99.7c0-9.2-7.4-16.6-16.6-16.6s-16.6 7.4-16.6 16.6v182.8c0 9.2 7.4 16.6 16.6 16.6h49.6l-8 481.8h49.8l-8-481.8h49.6c9.2 0 16.6-7.4 16.6-16.6V179.7c-0.2-9.2-7.7-16.6-16.8-16.6z" fill="#49A0E8" p-id="9306"></path></svg>