<?xml version="1.0" standalone="no"?><!DOCTYPE svg PUBLIC "-//W3C//DTD SVG 1.1//EN" "http://www.w3.org/Graphics/SVG/1.1/DTD/svg11.dtd"><svg t="1651671022973" class="icon" viewBox="0 0 1024 1024" version="1.1" xmlns="http://www.w3.org/2000/svg" p-id="2321" xmlns:xlink="http://www.w3.org/1999/xlink" width="200" height="200"><defs><style type="text/css">@font-face { font-family: feedback-iconfont; src: url("//at.alicdn.com/t/font_1031158_u69w8yhxdu.woff2?t=1630033759944") format("woff2"), url("//at.alicdn.com/t/font_1031158_u69w8yhxdu.woff?t=1630033759944") format("woff"), url("//at.alicdn.com/t/font_1031158_u69w8yhxdu.ttf?t=1630033759944") format("truetype"); }
</style></defs><path d="M510.82666667 954.45333333C267.30666667 954.45333333 69.12 756.26666667 69.12 512.74666667S267.30666667 71.04 510.82666667 71.04 952.53333333 269.22666667 952.53333333 512.74666667 754.45333333 954.45333333 510.82666667 954.45333333z m0-771.30666666c-181.65333333 0-329.49333333 147.84-329.49333334 329.6s147.84 329.49333333 329.49333334 329.49333333 329.6-147.84 329.6-329.49333333-147.84-329.6-329.6-329.6z" fill="#52A9FF" p-id="2322"></path><path d="M805.86666667 510.18666667c0 41.28-13.22666667 80.42666667-38.18666667 113.28-8.32 10.88-20.8 16.53333333-33.49333333 16.53333333-8.85333333 0-17.81333333-2.77333333-25.49333334-8.64-18.56-14.08-21.97333333-40.42666667-8-58.98666667 13.76-17.92 21.01333333-39.46666667 21.01333334-62.18666666 0-56.74666667-46.18666667-102.82666667-102.82666667-102.82666667-56.64 0-102.82666667 46.08-102.82666667 102.82666667 0 22.72 7.25333333 44.16 21.01333334 62.18666666 14.08 18.56 10.56 44.90666667-8 58.98666667-18.56 14.08-44.90666667 10.56-58.98666667-8-0.64-0.85333333-1.28-1.70666667-1.92-2.66666667-4.37333333 4.05333333-8.85333333 7.89333333-13.65333333 11.30666667-7.46666667 5.54666667-16.21333333 8.21333333-24.85333334 8.21333333-13.01333333 0-25.70666667-5.97333333-33.92-17.06666666-13.76-18.66666667-9.70666667-45.12 8.85333334-58.77333334 17.49333333-12.8 27.41333333-32.53333333 27.41333333-54.08 0-37.01333333-30.08-67.09333333-67.09333333-67.09333333s-67.2 30.08-67.2 67.09333333c0 21.54666667 9.92 41.17333333 27.30666666 53.97333334 18.66666667 13.86666667 22.61333333 40.21333333 8.85333334 58.88-13.76 18.66666667-40.21333333 22.61333333-58.88 8.74666666-38.4-28.37333333-61.44-73.92-61.44-121.6 0-83.41333333 67.84-151.25333333 151.25333333-151.25333333 39.89333333 0 76.26666667 15.57333333 103.25333333 40.85333333 34.02666667-46.4 88.85333333-76.58666667 150.72-76.58666666 103.25333333-0.10666667 187.09333333 83.84 187.09333334 186.88z" fill="#00EFEF" p-id="2323"></path></svg>