<?xml version="1.0" standalone="no"?><!DOCTYPE svg PUBLIC "-//W3C//DTD SVG 1.1//EN" "http://www.w3.org/Graphics/SVG/1.1/DTD/svg11.dtd"><svg t="1651300703500" class="icon" viewBox="0 0 1024 1024" version="1.1" xmlns="http://www.w3.org/2000/svg" p-id="2809" xmlns:xlink="http://www.w3.org/1999/xlink" width="200" height="200"><defs><style type="text/css">@font-face { font-family: feedback-iconfont; src: url("//at.alicdn.com/t/font_1031158_u69w8yhxdu.woff2?t=1630033759944") format("woff2"), url("//at.alicdn.com/t/font_1031158_u69w8yhxdu.woff?t=1630033759944") format("woff"), url("//at.alicdn.com/t/font_1031158_u69w8yhxdu.ttf?t=1630033759944") format("truetype"); }
</style></defs><path d="M278.884848 498.176v170.868364h463.949576v-163.374546z" fill="#F8D02D" p-id="2810"></path><path d="M815.010909 538.468848a36.305455 36.305455 0 0 1-23.427879 10.643394v-58.321454a19.238788 19.238788 0 0 0 0-8.73503v-5.864728a36.538182 36.538182 0 0 1 23.427879 62.277818z m-122.026667 130.575516H329.200485c-23.427879 0-42.542545-20.371394-42.542546-45.366303v-4.204606h81.92c10.689939 0 19.347394-9.24703 19.347394-20.635152 0-11.372606-8.657455-20.619636-19.347394-20.619636h-81.92v-71.168h448.884364v71.168h-81.92c-10.689939 0-19.362909 9.24703-19.362909 20.635151 0 11.372606 8.67297 20.619636 19.347394 20.619637h81.935515v4.18909c0 25.088-19.114667 45.381818-42.558061 45.381819z m-7.555878 99.296969h-28.454788a10.053818 10.053818 0 0 1-10.069334-10.053818v-47.926303h48.671031v47.926303a10.115879 10.115879 0 0 1-10.146909 10.053818z m-310.20994-10.053818a10.053818 10.053818 0 0 1-10.069333 10.053818h-28.454788a10.053818 10.053818 0 0 1-10.069333-10.053818v-47.926303h48.67103v47.926303h-0.077576zM196.390788 512.651636c0-9.728 3.801212-18.881939 10.72097-25.817212 6.361212-6.361212 14.599758-10.053818 23.427878-10.643394v72.843637a36.414061 36.414061 0 0 1-34.133333-36.383031zM287.402667 292.615758a42.480485 42.480485 0 0 1 42.402909-42.40291h362.511515a42.480485 42.480485 0 0 1 42.402909 42.40291v165.91903H287.402667V292.615758z m579.568485 220.035878a77.808485 77.808485 0 0 0-75.403637-77.699878V288.302545A86.698667 86.698667 0 0 0 704.99297 201.69697H317.129697a86.698667 86.698667 0 0 0-86.605576 86.605575v146.649213a76.908606 76.908606 0 0 0-52.627394 22.776242 77.808485 77.808485 0 0 0 52.627394 132.716606v33.31103a86.822788 86.822788 0 0 0 54.768485 80.585697v54.023758a51.355152 51.355152 0 0 0 51.308606 51.308606h28.454788a51.355152 51.355152 0 0 0 51.293091-51.308606V710.438788h189.129697v47.926303a51.355152 51.355152 0 0 0 51.308606 51.308606h28.454788a51.355152 51.355152 0 0 0 51.308606-51.308606v-54.023758a86.714182 86.714182 0 0 0 54.768485-80.585697v-33.326545a76.893091 76.893091 0 0 0 52.611879-22.760727 76.489697 76.489697 0 0 0 23.024484-55.016728z" fill="#444444" p-id="2811"></path><path d="M347.073939 417.357576c9.262545-0.822303 16.787394-8.021333 18.385455-17.532121 5.818182-33.947152 29.385697-61.502061 61.067636-71.400728 7.090424-2.110061 12.520727-8.036848 14.227394-15.515151 1.706667-7.478303-0.574061-15.36-5.988848-20.650667a20.076606 20.076606 0 0 0-20.169697-4.933818c-46.529939 14.537697-81.159758 55.032242-89.724121 104.882424-1.923879 11.636364 5.585455 22.807273 16.802909 24.886303 1.784242 0.325818 3.599515 0.418909 5.399272 0.248243z" fill="#444444" p-id="2812"></path></svg>