<?xml version="1.0" standalone="no"?><!DOCTYPE svg PUBLIC "-//W3C//DTD SVG 1.1//EN" "http://www.w3.org/Graphics/SVG/1.1/DTD/svg11.dtd"><svg t="1651671275769" class="icon" viewBox="0 0 1024 1024" version="1.1" xmlns="http://www.w3.org/2000/svg" p-id="8089" xmlns:xlink="http://www.w3.org/1999/xlink" width="200" height="200"><defs><style type="text/css">@font-face { font-family: feedback-iconfont; src: url("//at.alicdn.com/t/font_1031158_u69w8yhxdu.woff2?t=1630033759944") format("woff2"), url("//at.alicdn.com/t/font_1031158_u69w8yhxdu.woff?t=1630033759944") format("woff"), url("//at.alicdn.com/t/font_1031158_u69w8yhxdu.ttf?t=1630033759944") format("truetype"); }
</style></defs><path d="M367.097 411.942c-71.8 0-130.213-58.404-130.213-130.192s58.413-130.192 130.213-130.192c71.788 0 130.192 58.404 130.192 130.192s-58.404 130.192-130.192 130.192z m0-253.384c-67.94 0-123.213 55.264-123.213 123.192s55.273 123.192 123.213 123.192c67.928 0 123.192-55.264 123.192-123.192s-55.264-123.192-123.192-123.192z" p-id="8090"></path><path d="M367.097 408.442c69.795 0 126.692-56.918 126.692-126.692s-56.897-126.692-126.692-126.692c-69.793 0-126.713 56.917-126.713 126.692 0 69.774 56.919 126.692 126.713 126.692z" fill="#F3EC9B" p-id="8091"></path><path d="M372.683 843.229c-46.359 0-94.692-13.128-143.656-39.021a3.5 3.5 0 0 1-1.864-3.094V445.151a3.5 3.5 0 0 1 3.5-3.5h276.301a3.5 3.5 0 0 1 3.5 3.5v355.964a3.501 3.501 0 0 1-1.718 3.013c-43.871 25.946-89.649 39.101-136.063 39.101z m-138.52-44.228c47.306 24.706 93.898 37.229 138.52 37.229 44.54 0 88.528-12.485 130.781-37.118v-350.46H234.163v350.349z" p-id="8092"></path><path d="M230.663 445.151h276.301v355.964c-84.312 49.863-175.916 53.084-276.301 0V445.151z" fill="#F3EC9B" p-id="8093"></path><path d="M189.693 829.2h-0.006c-16.547-0.002-30.479-9.708-38.225-26.628a3.504 3.504 0 0 1-0.318-1.457V516.532c-2.49-24.555 2.018-43.399 13.4-56.009 13.11-14.525 35.401-20.873 66.346-18.865a3.5 3.5 0 0 1 3.273 3.493v355.964a3.5 3.5 0 0 1-0.616 1.983c-11.411 16.589-27.396 26.102-43.854 26.102z m-31.549-28.861c6.61 13.904 18.071 21.859 31.544 21.861h0.004c13.627 0 27.566-8.273 37.471-22.188v-351.55a157.657 157.657 0 0 0-7.198-0.171c-23.192 0-40.09 5.694-50.225 16.922-10.026 11.108-13.934 28.194-11.614 50.783 0.012 0.119 0.018 0.238 0.018 0.357v283.986z" p-id="8094"></path><path d="M230.663 445.151c-55.896-3.623-81.264 20.124-76.019 71.203v284.762c15.284 33.386 53.89 32.168 76.019 0V445.151z" fill="#31BDEB" p-id="8095"></path><path d="M372.696 792.546c-46.292 0-94.572-11.432-143.498-33.977a3.499 3.499 0 0 1-2.035-3.179V445.15a3.5 3.5 0 0 1 3.5-3.5h276.301a3.5 3.5 0 0 1 3.5 3.5v310.24a3.5 3.5 0 0 1-1.896 3.111c-43.817 22.591-89.53 34.045-135.872 34.045z m-138.533-39.402c47.301 21.501 93.9 32.402 138.533 32.402 44.547 0 88.533-10.865 130.768-32.296V448.651H234.163v304.493z" p-id="8096"></path><path d="M230.663 445.151h276.301v310.24c-84.312 43.468-175.916 46.258-276.301 0v-310.24z" fill="#31BDEB" p-id="8097"></path><path d="M154.644 730.038h74.825v7h-74.825zM551.819 675.505c-24.937 0-40.726-16.244-48.269-49.661a3.511 3.511 0 0 1-0.086-0.771V445.151a3.5 3.5 0 0 1 3.275-3.493c47.145-3.031 73.508 18.277 78.506 63.265 0.015 0.128 0.021 0.257 0.021 0.386v82.348H746.47c0.217 0 0.433 0.021 0.646 0.061 25.377 4.763 33.61 25.865 32.854 44.026-0.817 19.635-12.711 41.635-33.143 43.732a3.284 3.284 0 0 1-0.357 0.019H552.818c-0.292 0.006-0.645 0.01-0.999 0.01z m-41.355-50.824c6.833 29.895 19.98 43.824 41.355 43.824 0.31 0 0.619-0.003 0.933-0.009l193.532-0.001c16.412-1.807 25.999-20.399 26.691-37.042 0.632-15.158-6.098-32.74-26.838-36.796h-164.37a3.5 3.5 0 0 1-3.5-3.5v-85.652c-4.332-38.444-24.901-57.133-62.879-57.133-1.602 0-3.249 0.034-4.924 0.101v176.208z" p-id="8098"></path><path d="M506.964 445.151v179.922c6.544 28.991 20.016 47.411 45.854 46.922H746.47c34.046-3.495 45.663-72.268 0-80.838H581.768V505.31c-4.497-40.482-26.71-63.25-74.804-60.159z" fill="#31BDEB" p-id="8099"></path><path d="M675.052 590.539h7v80.622h-7zM245.038 264.552c-2.16 0-3.7-0.03-4.354-0.045l0.166-6.998c9.66 0.226 36.448-0.345 44.248-5.661a646.74 646.74 0 0 1 5.066-3.394c9.607-6.396 35.126-23.385 36.615-29.352 0.405-1.608 1.536-2.875 3.104-3.482 3.313-1.282 9.681-0.538 33.682 13.483 11.134 6.505 21.678 13.362 24.388 15.139 5.514 0.761 39.282 5.292 61.518 5.292 24.476 0 28.027-0.801 31.461-1.576 4.108-0.912 11.677-0.553 12.527-0.508l-0.362 6.99c-2.046-0.105-7.948-0.249-10.636 0.349-3.972 0.896-7.735 1.745-32.99 1.745-24.653 0-61.711-5.247-63.276-5.47a3.491 3.491 0 0 1-1.438-0.547c-20.453-13.543-45.171-27.678-51.664-28.329-3.107 7.133-16.851 17.314-39.048 32.092-1.937 1.29-3.641 2.424-5.004 3.352-9.146 6.234-33.662 6.92-44.003 6.92zM323.096 294.694c-7.477 0-13.56-6.084-13.56-13.562 0-7.479 6.083-13.563 13.56-13.563 7.466 0 13.541 6.084 13.541 13.563 0 7.478-6.074 13.562-13.541 13.562z m0-20.124c-3.617 0-6.56 2.944-6.56 6.563a6.569 6.569 0 0 0 6.56 6.562c3.606 0 6.541-2.944 6.541-6.562 0-3.619-2.934-6.563-6.541-6.563zM408.88 294.267c-7.478 0-13.562-6.083-13.562-13.561 0-7.479 6.084-13.563 13.562-13.563s13.561 6.084 13.561 13.563c0 7.478-6.084 13.561-13.561 13.561z m0-20.123a6.57 6.57 0 0 0-6.562 6.563 6.569 6.569 0 0 0 6.562 6.561 6.568 6.568 0 0 0 6.561-6.561 6.569 6.569 0 0 0-6.561-6.563zM365.546 357.158c-11.906 0-23.311-5.685-34.135-17.057l5.07-4.826c19.018 19.98 38.503 19.912 61.324-0.212l4.63 5.25c-12.734 11.229-25.059 16.845-36.889 16.845zM363.306 634.938c-15.277 0-29.138-22.151-30.668-24.678a3.426 3.426 0 0 1-0.305-0.645l-57.771-163.041a3.5 3.5 0 0 1 3.249-4.668l29.526-0.426c1.037-0.059 2.031 0.433 2.708 1.222 0.505 0.59 0.795 1.325 0.837 2.087l5.993-2.218a3.498 3.498 0 0 1 1.193-0.218l142.486-0.874a3.43 3.43 0 0 1 2.873 1.47c0.661 0.929 0.829 2.121 0.449 3.195-2.186 6.192-53.645 151.866-62.612 171.071-7.354 15.742-15.47 15.982-24.062 16.236-3.246 0.096-6.603 0.194-10.392 1.083a15.219 15.219 0 0 1-3.504 0.404z m-24.498-28.006c3.791 6.128 15.022 21.007 24.499 21.007 0.649 0 1.289-0.072 1.901-0.217 4.479-1.05 8.362-1.165 11.787-1.266 7.994-0.236 12.398-0.367 17.927-12.201 7.934-16.993 51.587-140.021 60.692-165.744l-136.888 0.84-11 4.071a3.499 3.499 0 0 1-4.666-3.868l0.172-1.013-20.443 0.295 56.019 158.096z" p-id="8100"></path><path d="M318.088 445.854l-11.578 4.285 0.876-5.159-29.526 0.426 57.771 163.041s15.819 26.113 30.379 22.681c14.56-3.411 23.087 3.859 32.081-15.392 8.998-19.271 62.483-170.756 62.483-170.756l-142.486 0.874z" fill="#C2D731" p-id="8101"></path><path d="M878.788 537.633h-185.38a3.5 3.5 0 0 1-3.5-3.5v-92.777a3.5 3.5 0 0 1 3.5-3.5h185.38a3.5 3.5 0 0 1 3.5 3.5v92.777a3.5 3.5 0 0 1-3.5 3.5z m-181.88-7h178.38v-85.777h-178.38v85.777z" p-id="8102"></path><path d="M693.408 534.133h185.38v-92.777h-185.38v92.777z" fill="#31BDEB" p-id="8103"></path><path d="M785.395 474.361c-0.4 0-0.801-0.068-1.183-0.206l-145.897-52.4a3.5 3.5 0 0 1-0.065-6.564l145.473-55.512a3.496 3.496 0 0 1 2.464-0.012l143.468 53.167a3.499 3.499 0 0 1 0.035 6.55l-143.043 54.745a3.496 3.496 0 0 1-1.252 0.232z m-135.82-56l135.78 48.767 133.152-50.959-133.521-49.48-135.411 51.672z" p-id="8104"></path><path d="M785.395 470.861l143.043-54.745-143.468-53.167-145.473 55.512 145.898 52.4z" fill="#31BDEB" p-id="8105"></path><path d="M636.425 418.845h7v76.489h-7z" p-id="8106"></path><path d="M639.925 538.399c-5.774 0-10.473-4.697-10.473-10.471 0-5.785 4.698-10.491 10.473-10.491 5.785 0 10.491 4.706 10.491 10.491 0 5.774-4.706 10.471-10.491 10.471z m0-13.961c-1.915 0-3.473 1.566-3.473 3.491a3.476 3.476 0 0 0 3.473 3.471c1.925 0 3.491-1.557 3.491-3.471a3.495 3.495 0 0 0-3.491-3.491z" p-id="8107"></path><path d="M639.925 534.899c3.856 0 6.991-3.112 6.991-6.971s-3.135-6.991-6.991-6.991c-3.838 0-6.973 3.133-6.973 6.991s3.135 6.971 6.973 6.971z" fill="#31BDEB" p-id="8108"></path><path d="M371.147 516.102a3.505 3.505 0 0 1-2.475-1.024l-63.357-63.337a3.5 3.5 0 0 1-1.025-2.526l0.45-30.804a3.5 3.5 0 0 1 5.249-2.98l55.274 31.905 58.325-33.653a3.5 3.5 0 0 1 5.25 3.032v30.486c0 0.815-0.285 1.605-0.805 2.233l-54.191 65.403a3.5 3.5 0 0 1-2.531 1.263l-0.164 0.002z m-59.835-68.266l59.592 59.573 50.934-61.472v-23.164l-54.826 31.634a3.502 3.502 0 0 1-3.499 0l-51.861-29.935-0.34 23.364z" p-id="8109"></path><path d="M308.24 418.461l57.023 32.915 60.075-34.663v30.486l-54.191 65.403-63.357-63.336 0.45-30.805z" fill="#F3EC9B" p-id="8110"></path></svg>