<?xml version="1.0" standalone="no"?><!DOCTYPE svg PUBLIC "-//W3C//DTD SVG 1.1//EN" "http://www.w3.org/Graphics/SVG/1.1/DTD/svg11.dtd"><svg t="1651304782065" class="icon" viewBox="0 0 1024 1024" version="1.1" xmlns="http://www.w3.org/2000/svg" p-id="10611" xmlns:xlink="http://www.w3.org/1999/xlink" width="200" height="200"><defs><style type="text/css">@font-face { font-family: feedback-iconfont; src: url("//at.alicdn.com/t/font_1031158_u69w8yhxdu.woff2?t=1630033759944") format("woff2"), url("//at.alicdn.com/t/font_1031158_u69w8yhxdu.woff?t=1630033759944") format("woff"), url("//at.alicdn.com/t/font_1031158_u69w8yhxdu.ttf?t=1630033759944") format("truetype"); }
</style></defs><path d="M625.664 250.368H505.2928c-12.4928 0-22.5792-14.7456-22.5792-33.024s10.24-33.024 22.5792-33.024h120.3712c12.4928 0 22.5792 14.7968 22.5792 33.024s-10.0864 33.024-22.5792 33.024z" fill="#FF4A41" p-id="10612"></path><path d="M494.336 724.736a21.9136 21.9136 0 0 0 0-43.7248H374.1184a115.4048 115.4048 0 0 1 8.704 43.7248zM884.6336 286.208h-365.7728a80.4352 80.4352 0 0 0-59.6992 25.6L329.216 454.9632H120.1664C86.6816 454.9632 61.44 489.4208 61.44 535.04v109.6192c0 45.6192 25.2416 80.0768 58.7264 80.0768H189.44a85.5552 85.5552 0 0 1 8.9088-37.4784H120.1664c-4.0448 0-16.7936-15.36-16.7936-42.5984V535.04c0-27.0336 12.7488-42.5984 16.7936-42.5984h219.2384a21.504 21.504 0 0 0 17.664-8.7552L491.52 335.5136a36.7104 36.7104 0 0 1 27.1872-11.8272h365.7728a35.1744 35.1744 0 0 1 35.84 34.2528v164.864a21.0944 21.0944 0 0 0 41.8816 0v-164.864c0.3584-39.5776-34.6624-71.7312-77.568-71.7312z" fill="#2B4360" p-id="10613"></path><path d="M391.4752 723.456a102.4 102.4 0 0 0-204.8 0 102.4 102.4 0 1 0 204.8 0z m-102.4 61.7984a61.44 61.44 0 0 1-61.44-61.44 61.44 61.44 0 0 1 122.88 0 61.44 61.44 0 0 1-61.44 61.44zM530.1248 501.76H445.952a8.6528 8.6528 0 0 1-8.2944-8.9088v-10.752a11.1104 11.1104 0 0 1 3.2256-7.68l33.1776-43.3152a7.5776 7.5776 0 0 1 4.8128-1.6896h51.2a8.5504 8.5504 0 0 1 8.2432 8.9088v54.4256a8.6016 8.6016 0 0 1-8.192 9.0112z" fill="#2B4360" p-id="10614"></path><path d="M691.8144 602.368a309.6576 309.6576 0 0 1-37.12 24.7296 135.4752 135.4752 0 0 1-28.0576 12.4928 30.72 30.72 0 0 1-9.2672 1.792c-3.1232 0-3.0208 2.7136-3.3792 5.12a152.8832 152.8832 0 0 0-1.024 28.2112 94.208 94.208 0 0 0 7.5264 33.7408h13.3632a5.8368 5.8368 0 0 1 1.7408-2.0992c3.9424-5.4784 7.8336-11.008 11.8272-16.4352q9.8816-13.6192 19.2-27.648c7.68-11.52 15.36-23.1424 22.016-35.3792a99.328 99.328 0 0 0 8.704-19.456c-0.4096-1.1776 0-1.5872 0.9728-1.7408a54.8352 54.8352 0 0 0 13.312-2.6624 28.16 28.16 0 0 0 12.3904-7.2704 18.5856 18.5856 0 0 0-7.0144-1.7408 28.416 28.416 0 0 0-18.7904 5.5296 4.3008 4.3008 0 0 1-1.0752 0.5632h-0.4096v-0.4608a36.352 36.352 0 0 0 4.5568-14.2336 30.3104 30.3104 0 0 0-1.28-11.5712 38.144 38.144 0 0 0-4.608 10.24 46.08 46.08 0 0 0-2.304 15.7184c0.1536 1.3824-0.0512 2.304-1.28 2.56z" fill="#FF4A41" p-id="10615"></path><path d="M581.8368 735.744a110.9504 110.9504 0 0 1 6.9632-14.4896 14.5408 14.5408 0 0 1 9.0112-7.936 112.9984 112.9984 0 0 1 21.0944-2.8672H634.88l-1.1264-2.0992c3.9424-5.5296 7.8848-11.008 11.8784-16.4864q9.8304-13.5168 19.2-27.5968c7.68-11.52 15.36-23.1424 21.9648-35.4304a97.7408 97.7408 0 0 0 8.7552-19.4048 78.9504 78.9504 0 0 0 13.3632 1.7408q14.8992 1.1776 29.9008 1.8944c6.4512 0.3584 12.9536 0.512 19.4048 1.0752a1.9456 1.9456 0 0 1 0.768 0c10.24 0.4096 20.48 0.9216 30.72 1.28q17.664 0.6144 35.328 1.9456a198.4 198.4 0 0 1 25.1904 2.7648 2.4064 2.4064 0 0 0 2.304-0.8192c18.8416-17.7664 7.424-71.68 25.6-90.2656a183.3472 183.3472 0 0 1 15.36-14.4384c0.7168-0.6144 1.6896-1.7408 2.4064-1.024s0 2.2016 0 3.2256a98.2528 98.2528 0 0 1-6.5536 14.08c-14.848 26.9312-2.9184 85.9648-24.2176 105.9328a2.56 2.56 0 0 0-0.768 2.9184 200.2432 200.2432 0 0 1 4.2496 20.8384 152.6272 152.6272 0 0 1 1.9456 17.5104 102.4 102.4 0 0 1 0.4608 17.7152 141.4656 141.4656 0 0 0-0.8192 16.1792 69.4784 69.4784 0 0 0 8.0896 28.8256 100.2496 100.2496 0 0 0 16.1792 21.0944 37.9392 37.9392 0 0 1 4.1984 5.12 25.0368 25.0368 0 0 1 2.6624 13.312 213.1456 213.1456 0 0 1-0.6144 23.552c-0.5632 8.0896-1.1776 16.128-2.4064 24.1664a10.24 10.24 0 0 1-3.7888 6.912 18.2784 18.2784 0 0 1-9.5744 3.6352 37.2224 37.2224 0 0 1-17.1008-1.024c-2.4576-0.9216-5.12-2.048-5.12-5.9392a35.84 35.84 0 0 1 1.9456-16.7936 5.888 5.888 0 0 1 5.5808-3.9424h5.12c1.8432 0 2.0992-0.3584 2.048-2.304a133.376 133.376 0 0 0-0.8192-19.712 15.6672 15.6672 0 0 0-6.5536-11.6736 81.92 81.92 0 0 0-14.1824-6.4512 31.232 31.232 0 0 1-18.432-16.7936c-4.1984-9.5232-10.24-17.5616-15.36-26.6752a1.8944 1.8944 0 0 0-2.3552-1.0752 120.9856 120.9856 0 0 1-13.312 2.8672 1.4336 1.4336 0 0 0-1.4848 1.6896 40.192 40.192 0 0 0 3.1232 17.1008 44.4928 44.4928 0 0 0 7.5264 11.3152 11.1104 11.1104 0 0 1 2.816 8.2944 71.1168 71.1168 0 0 1-2.6624 14.7968c-3.84 14.7968-9.0112 29.0304-14.0288 43.3152a6.4512 6.4512 0 0 1-4.1472 4.5056 40.3456 40.3456 0 0 1-19.4048 1.6896 16.7936 16.7936 0 0 1-7.1168-2.4064 4.8128 4.8128 0 0 1-2.1504-3.1744 32.1536 32.1536 0 0 1 1.8432-18.6368 5.376 5.376 0 0 1 4.4544-3.6864 26.2144 26.2144 0 0 1 9.3696 0.6144c1.0752 0.3584 1.536 0 1.9456-1.1264a153.2416 153.2416 0 0 0 4.864-18.944 12.032 12.032 0 0 0-2.9184-11.2128 51.8144 51.8144 0 0 0-8.0896-6.144 32.0512 32.0512 0 0 1-13.056-15.36 59.0848 59.0848 0 0 1-2.9184-13.9776c0-0.8704 0-1.9968-1.1776-1.8432-4.096 0.512-8.192 0.8704-12.288 1.3312-8.2944 0.8192-16.5888 1.3824-24.8832 1.7408h-8.6528c-2.9184 0-2.7136 0-2.6624 3.072 0 4.0448 0.3072 8.0896 0.3584 12.1344q0.4096 36.3008-0.3584 72.704c0 5.4784-1.8432 8.0384-6.3488 9.4208a42.2912 42.2912 0 0 1-16.3328 1.792 20.48 20.48 0 0 1-8.96-2.4064 5.5808 5.5808 0 0 1-2.9184-4.352 35.3792 35.3792 0 0 1 1.024-15.36c1.3824-4.608 3.2768-6.2464 7.2704-6.3488h2.4064c1.1776 0 1.5872-0.3072 1.28-1.8944q-5.12-26.4192-9.7792-52.992c-0.3584-1.9968-1.2288-2.4576-2.6112-2.6112a154.7264 154.7264 0 0 1-15.872-3.0208c-17.1008-4.1472-34.2016-8.5504-51.2-12.8a44.2368 44.2368 0 0 0-9.6768-1.4848c-1.024 0-2.304 0-2.304 1.9456a178.3808 178.3808 0 0 1-1.9456 26.1632 44.032 44.032 0 0 1-3.6864 14.08 2.7648 2.7648 0 0 1-2.2016 1.7408 19.5584 19.5584 0 0 1-15.36-5.5296 5.4784 5.4784 0 0 1-1.7408-4.4032c0-2.1504 0-4.3008 0.3072-6.5024a116.48 116.48 0 0 1 5.7856-26.5728zM559.8208 582.7584l-17.3568-1.8944-7.7824-0.8192-1.536-8.3968c1.9456-0.9728 3.84-1.8944 5.7344-2.9696 3.6352-2.0992 4.2496-3.7376 3.6352-8.5504-0.4608-3.5328-0.7168-7.0656-1.0752-10.5472a2.8672 2.8672 0 0 1 0.8704-0.4608 178.688 178.688 0 0 1 26.112-2.3552 3.2256 3.2256 0 0 0 2.9696-1.7408c2.5088-3.84 5.12-7.68 7.5776-11.5712a13.8752 13.8752 0 0 1 10.5984-7.7312l0.4608-0.3072 8.6528-1.9456c1.2288-9.1136 2.304-18.2272 4.3008-27.136a45.2096 45.2096 0 0 1 3.9424-12.0832c1.2288-2.2528 2.0992-2.4064 3.84-0.9216a26.112 26.112 0 0 1 6.4 9.2672c1.2288 2.4064 1.7408 5.12 3.1232 7.4752 0-1.024 0-1.9968 0.4608-3.0208a93.8496 93.8496 0 0 1 4.8128-19.6096c1.8944-4.7616 3.1232-5.12 6.2976-1.4336a43.776 43.776 0 0 1 8.1408 16.8448c5.12 16.5376 5.888 33.9968 8.2944 51.2 2.0992 2.4576 4.3008 4.8128 6.2976 7.3728q9.8304 12.8512 18.7904 26.5216a235.2128 235.2128 0 0 1 16.5888 26.4704 312.32 312.32 0 0 1-37.1712 24.7296 135.7312 135.7312 0 0 1-28.0576 12.4928 31.8976 31.8976 0 0 1-9.216 1.7408 198.6048 198.6048 0 0 1-15.36-29.4912 3.8912 3.8912 0 0 0-3.584-2.8672 51.9168 51.9168 0 0 1-12.032-3.072 58.112 58.112 0 0 0-8.96-3.3792 271.7696 271.7696 0 0 1-31.3344-9.4208 12.2368 12.2368 0 0 1-8.704-11.4688l15.0016 1.5872c3.0208 0.3072 5.9904 0.768 8.96 1.0752a1.7408 1.7408 0 0 0 1.9456-1.8432 1.5872 1.5872 0 0 0-1.6384-1.7408z" fill="#FB8A13" p-id="10616"></path><path d="M533.1456 571.648c1.9456-0.9728 3.84-1.8944 5.7344-2.9696 3.6352-2.0992 4.2496-3.7376 3.6352-8.5504-0.4608-3.5328-0.7168-7.0656-1.0752-10.5472a19.3536 19.3536 0 0 0-9.2672 2.5088 3.1232 3.1232 0 0 0-1.7408 2.8672 51.2 51.2 0 0 0 2.7136 16.6912zM535.552 583.68l15.0016 1.5872c3.0208 0.3072 5.9904 0.768 8.96 1.0752a1.7408 1.7408 0 0 0 1.9456-1.8432 1.5872 1.5872 0 0 0-1.6384-1.8432l-17.3568-1.8944-7.7824-0.8192c-1.6384 1.9456-1.3824 3.0208 0.8704 3.7376zM589.824 525.6192l0.4608-0.3072z" fill="#FB8A13" p-id="10617"></path></svg>