<?xml version="1.0" standalone="no"?><!DOCTYPE svg PUBLIC "-//W3C//DTD SVG 1.1//EN" "http://www.w3.org/Graphics/SVG/1.1/DTD/svg11.dtd"><svg t="1651671843429" class="icon" viewBox="0 0 1024 1024" version="1.1" xmlns="http://www.w3.org/2000/svg" p-id="21954" xmlns:xlink="http://www.w3.org/1999/xlink" width="200" height="200"><defs><style type="text/css">@font-face { font-family: feedback-iconfont; src: url("//at.alicdn.com/t/font_1031158_u69w8yhxdu.woff2?t=1630033759944") format("woff2"), url("//at.alicdn.com/t/font_1031158_u69w8yhxdu.woff?t=1630033759944") format("woff"), url("//at.alicdn.com/t/font_1031158_u69w8yhxdu.ttf?t=1630033759944") format("truetype"); }
</style></defs><path d="M745.257143 785.142857l-56.342857 25.371429c-17.6 7.885714-36.8-6.514286-35.542857-26.514286l5.942857-87.771429c1.828571-27.314286 17.371429-51.657143 40.8-63.885714l48.342857-25.257143-3.2 178.057143z" fill="#BBDEFB" p-id="21955"></path><path d="M808.342857 147.657143c7.2 21.028571-21.142857 109.257143 0 199.428571s20.457143 105.257143 17.485714 161.257143-20.685714 295.085714-21.485714 333.828572c-1.371429 65.714286 35.542857 128.457143 44.342857 144.342857 8.8 15.885714-12.914286 19.771429-29.142857 12.685714-22.971429-9.942857-61.6-99.314286-60.114286-148.685714 1.6-52.342857 10.971429-367.085714 6.514286-403.2-8.114286-65.485714-68.228571-87.885714-68.228571-87.885715" fill="#BBDEFB" p-id="21956"></path><path d="M647.771429 370.857143s30.4 6.285714 62.742857-4.114286c19.428571-6.285714 44.342857-32.914286 50.628571-54.057143 14.171429-47.428571 40.457143-151.085714 40.457143-151.085714l-31.542857-73.828571-122.285714 283.085714zM757.714286 72.457143c-56.685714-17.028571-89.028571-28.114286-144 71.885714-42.171429 76.8-71.2 81.485714-128.571429 81.485714-38.285714 0-190.285714-6.171429-261.714286-9.142857-14.857143-0.571429-23.542857 17.142857-14.4 29.485715 47.428571 64.228571 152.571429 206.628571 162.171429 220 20.342857 28.457143 41.257143 38.171429 82.285714 23.657142 30.971429-10.857143 112.914286-40.685714 151.314286-54.628571 12.228571-4.457143 20.457143-16.571429 20.457143-30.171429l0.114286-26.4L757.714286 72.457143z" fill="#00B8D4" p-id="21957"></path><path d="M827.771429 1015.542857c-13.257143 0-26.4-2.742857-32.8-4.914286-38.057143-13.028571-77.371429-106.857143-75.314286-160.685714 2.171429-56.228571 9.485714-362.4 4.114286-396.571428-8.457143-53.714286-86.171429-65.714286-86.971429-65.828572-8.114286-1.142857-13.828571-8.8-12.685714-16.914286 1.142857-8.228571 8.8-13.828571 16.914285-12.685714 4.114286 0.571429 100.342857 15.2 112.228572 90.742857 6.285714 40-2.285714 365.942857-3.657143 402.4-1.942857 48.8 35.885714 124.685714 55.085714 131.2 7.542857 2.628571 17.257143 3.428571 24.685715 3.314286-17.942857-25.714286-54.171429-82.628571-52.457143-143.885714 0.685714-23.085714 8.457143-112.342857 16-198.628572 5.028571-58.057143 9.828571-112.8 11.428571-135.771428 3.657143-54.971429 4.571429-68.114286-21.714286-156-18.4-61.485714-9.142857-121.485714-2.971428-161.142857 2.171429-14.4 4.914286-32.228571 3.542857-36.8-3.314286-7.542857 0.228571-16.342857 7.771429-19.542858 7.542857-3.314286 16.457143 0.342857 19.657142 7.885715 4.914286 11.428571 2.4 28-1.485714 53.028571-6.057143 39.314286-14.4 93.028571 2.057143 148 27.771429 93.028571 26.628571 110.057143 22.857143 166.514286-1.6 23.314286-6.4 78.171429-11.428572 136.342857-7.2 81.828571-15.314286 174.514286-15.885714 196.8-1.6 58.057143 38.857143 114.514286 52.114286 133.028571l1.6 2.285715c6.171429 8.571429 6.4 18.285714 0.685714 25.942857-6.628571 9.028571-20 11.885714-33.371428 11.885714z m8.342857-20.342857z" fill="#1C4F69" p-id="21958"></path><path d="M651.2 381.371429c-16.914286 0-28.457143-2.285714-29.371429-2.514286l-10.628571-20.571429L753.371429 29.257143h27.428571l36.685714 85.828571 0.8 9.6c-0.342857 1.257143-30.857143 121.371429-47.2 176.114286-8.685714 29.257143-41.485714 64-68.571428 72.685714-18.857143 6.171429-36.914286 7.885714-51.314286 7.885715z m-26.285714-17.142858z m21.828571-12.914285c12.342857 0.457143 29.257143-0.571429 46.514286-6.171429 17.942857-5.828571 43.2-32.914286 49.142857-52.8 14.285714-47.885714 39.771429-146.971429 45.6-170.057143l-21.028571-49.142857-120.228572 278.171429z" fill="#1C4F69" p-id="21959"></path><path d="M404.685714 505.714286c-25.942857 0-46.171429-12.571429-65.028571-38.857143-10.857143-15.2-136-184.571429-174.057143-236.114286-8.114286-10.971429-9.142857-25.371429-2.742857-37.6 6.171429-11.657143 17.942857-18.285714 30.857143-17.942857 87.771429 3.657143 240.914286 9.828571 280.457143 9.828571 57.714286 0 82.857143-3.085714 125.028571-79.771428C660.457143-6.171429 701.714286-0.114286 769.371429 20.342857l2.057142 0.571429 9.371429 20.228571-140.914286 326.171429-0.114285 25.257143c0 20.914286-12.914286 39.542857-31.885715 46.4-29.142857 10.628571-126.971429 46.171429-162.742857 58.742857-14.971429 5.257143-28.342857 8-40.457143 8z m-212.342857-300.571429c-1.257143 0-2.285714 0.685714-3.085714 2.057143-0.342857 0.685714-1.485714 3.2 0.342857 5.714286 38.171429 51.657143 163.314286 221.142857 174.285714 236.457143 17.485714 24.457143 32.571429 33.6 71.2 20 35.657143-12.571429 133.371429-48.114286 162.514286-58.628572 7.2-2.628571 12.114286-10.057143 12.114286-18.4l0.114285-28.342857 1.257143-5.942857L746.628571 44.8c-47.428571-13.485714-73.142857-12.457143-121.142857 74.857143-47.428571 86.285714-82.4 95.314286-151.2 95.314286-40.114286 0-193.714286-6.171429-281.714285-9.828572h-0.228572zM658.285714 834.4c-8.8 0-17.485714-2.628571-25.142857-8-13.485714-9.371429-20.914286-25.028571-19.771428-41.828571l6.971428-103.314286c2.514286-37.257143 24-70.742857 56-87.428572l56.914286-29.714285 21.828571 13.485714-3.657143 209.828571-8.8 13.371429-66.285714 29.828571c-5.828571 2.514286-12 3.771429-18.057143 3.771429z m66.628572-232L690.285714 620.571429c-22.857143 11.885714-38.171429 36-40 62.971428l-6.971428 103.314286c-0.457143 6.171429 2.171429 11.885714 6.971428 15.2 2.4 1.714286 7.542857 4.114286 13.714286 1.371428l57.714286-25.942857 3.2-175.085714z m11.657143 184.685714z" fill="#1C4F69" p-id="21960"></path><path d="M668.8 774.628571c-1.942857 0-3.771429-1.142857-4.571429-2.971428-1.142857-2.514286 0-5.485714 2.514286-6.628572l5.371429-2.4c2.514286-1.142857 5.485714 0 6.628571 2.514286s0 5.485714-2.514286 6.628572l-5.371428 2.4c-0.8 0.342857-1.485714 0.457143-2.057143 0.457142zM689.714286 764.685714c-1.942857 0-3.771429-1.142857-4.571429-2.971428-1.142857-2.514286 0-5.485714 2.514286-6.514286l2.171428-0.914286c5.371429-2.4 8.914286-7.885714 8.914286-14.057143l1.028572-67.085714c0-2.742857 2.057143-5.028571 5.028571-4.914286 2.742857 0 4.914286 2.285714 4.914286 5.028572l-1.028572 67.085714c-0.114286 10.057143-6.057143 19.085714-14.971428 22.971429l-2.171429 0.914285c-0.457143 0.342857-1.142857 0.457143-1.828571 0.457143zM502.4 247.542857H474.285714c-2.742857 0-5.028571-2.285714-5.028571-5.028571s2.285714-5.028571 5.028571-5.028572h28c45.485714 0 88.228571-23.428571 114.285715-62.742857l28.685714-43.2c1.485714-2.285714 4.571429-2.971429 6.857143-1.371428 2.285714 1.485714 2.971429 4.571429 1.371428 6.857142l-28.685714 43.2c-27.771429 42.171429-73.6 67.314286-122.4 67.314286zM440.228571 247.542857h-45.028571c-2.742857 0-5.028571-2.285714-5.028571-5.028571s2.285714-5.028571 5.028571-5.028572h45.028571c2.742857 0 5.028571 2.285714 5.028572 5.028572s-2.285714 5.028571-5.028572 5.028571z" fill="#1C4F69" p-id="21961"></path><path d="M687.657143 292.228571a19.314286 18.514286 90 1 0 37.028571 0 19.314286 18.514286 90 1 0-37.028571 0Z" fill="#FFFFFF" p-id="21962"></path><path d="M687.657143 288.914286a14.742857 14.057143 90 1 0 28.114286 0 14.742857 14.057143 90 1 0-28.114286 0Z" fill="#0F8EB8" p-id="21963"></path><path d="M706.171429 316.571429c-12.914286 0-23.428571-10.971429-23.428572-24.342858s10.514286-24.342857 23.428572-24.342857 23.428571 10.971429 23.428571 24.342857-10.4 24.342857-23.428571 24.342858z m0-38.742858c-7.428571 0-13.485714 6.4-13.485715 14.4s6.057143 14.4 13.485715 14.4 13.485714-6.4 13.485714-14.4-6.057143-14.4-13.485714-14.4z" fill="#1C4F69" p-id="21964"></path></svg>