<?xml version="1.0" standalone="no"?><!DOCTYPE svg PUBLIC "-//W3C//DTD SVG 1.1//EN" "http://www.w3.org/Graphics/SVG/1.1/DTD/svg11.dtd"><svg t="1651664358242" class="icon" viewBox="0 0 1175 1024" version="1.1" xmlns="http://www.w3.org/2000/svg" p-id="3605" xmlns:xlink="http://www.w3.org/1999/xlink" width="229.4921875" height="200"><defs><style type="text/css">@font-face { font-family: feedback-iconfont; src: url("//at.alicdn.com/t/font_1031158_u69w8yhxdu.woff2?t=1630033759944") format("woff2"), url("//at.alicdn.com/t/font_1031158_u69w8yhxdu.woff?t=1630033759944") format("woff"), url("//at.alicdn.com/t/font_1031158_u69w8yhxdu.ttf?t=1630033759944") format("truetype"); }
</style></defs><path d="M605.600674 716.886268h84.542544v130.264532h-84.542544zM809.192923 559.016007h84.542545v295.898905h-84.542545zM399.420388 637.519798h84.542544v204.454928h-84.542544zM194.10278 775.548441h84.542544v66.426285h-84.542544z" fill="#D53124" p-id="3606"></path><path d="M241.550126 630.618366c25.880371 0 46.584667-20.704297 46.584668-46.584668 0-8.62679-2.588037-16.390901-6.038754-23.292333 0.862679-0.862679 1.725358-0.862679 2.588038-1.725358l135.440606-135.440607c0.862679-0.862679 0.862679-1.725358 1.725358-2.588037 6.901432 4.313395 14.665543 6.038753 23.292334 6.038753 13.802864 0 25.880371-6.038753 34.507161-15.528222l123.3631 61.25021c-0.862679 2.588037-0.862679 5.176074-0.862679 8.626791 0 25.880371 20.704297 46.584667 46.584667 46.584667 25.880371 0 46.584667-20.704297 46.584667-46.584667 0-8.62679-2.588037-16.390901-6.038753-23.292334 0.862679-0.862679 2.588037-1.725358 3.450716-2.588037l135.440607-169.085088c0-0.862679 0.862679-0.862679 0.862679-1.725358 6.901432 4.313395 14.665543 6.038753 23.292333 6.038753 25.880371 0 46.584667-20.704297 46.584668-46.584668 0-25.880371-20.704297-46.584667-46.584668-46.584667-25.880371 0-46.584667 20.704297-46.584667 46.584667 0 8.62679 2.588037 16.390901 6.038753 23.292334-0.862679 0.862679-2.588037 1.725358-3.450716 2.588037l-135.440606 169.085089c0 0.862679-0.862679 0.862679-0.862679 1.725358-6.901432-4.313395-14.665543-6.038753-23.292334-6.038754-13.802864 0-25.880371 6.038753-34.507161 15.528223l-123.3631-61.250211c0.862679-2.588037 0.862679-5.176074 0.862679-8.62679 0-25.880371-20.704297-46.584667-46.584667-46.584667-25.880371 0-46.584667 20.704297-46.584667 46.584667 0 8.62679 2.588037 16.390901 6.038753 23.292334-0.862679 0.862679-1.725358 0.862679-2.588037 1.725358l-135.440607 135.440606c-0.862679 0.862679-0.862679 1.725358-1.725358 2.588037-6.901432-4.313395-14.665543-6.038753-23.292334-6.038753-25.880371 0-46.584667 20.704297-46.584667 46.584667-0.862679 25.880371 20.704297 46.584667 46.584667 46.584668z m609.914069-406.32182c11.214827 0 20.704297 9.489469 20.704297 20.704296s-9.489469 20.704297-20.704297 20.704297c-11.214827 0-20.704297-9.489469-20.704296-20.704297s8.62679-20.704297 20.704296-20.704296z m-203.592249 237.236731c11.214827 0 20.704297 9.489469 20.704297 20.704297 0 11.214827-9.489469 20.704297-20.704297 20.704296-11.214827 0-20.704297-9.489469-20.704296-20.704296 0-11.214827 9.489469-20.704297 20.704296-20.704297z m-203.592249-101.796125c11.214827 0 20.704297 9.489469 20.704296 20.704297 0 11.214827-9.489469 20.704297-20.704296 20.704297s-20.704297-9.489469-20.704297-20.704297 9.489469-20.704297 20.704297-20.704297z m-202.729571 203.59225c11.214827 0 20.704297 9.489469 20.704297 20.704296 0 11.214827-9.489469 20.704297-20.704297 20.704297-11.214827 0-20.704297-9.489469-20.704296-20.704297-0.862679-12.077506 8.62679-20.704297 20.704296-20.704296z" fill="#2D3036" p-id="3607"></path><path d="M936.00674 841.974726h-20.704297v-461.533277c0-6.901432-6.038753-12.940185-12.940185-12.940185h-101.796125c-6.901432 0-12.940185 6.038753-12.940185 12.940185v461.533277h-75.915754v-224.296546c0-6.901432-6.038753-12.940185-12.940186-12.940185h-101.796124c-6.901432 0-12.940185 6.038753-12.940186 12.940185v224.296546h-75.915754v-326.09267c0-6.901432-6.038753-12.940185-12.940185-12.940186h-101.796125c-6.901432 0-12.940185 6.038753-12.940185 12.940186v326.09267h-75.915754V719.474305c0-6.901432-6.038753-12.940185-12.940185-12.940185H189.789385c-6.901432 0-12.940185 6.038753-12.940185 12.940185v122.500421h-20.704297c-6.901432 0-12.940185 6.038753-12.940185 12.940186s6.038753 12.940185 12.940185 12.940185H936.00674c6.901432 0 12.940185-6.038753 12.940185-12.940185s-6.038753-12.940185-12.940185-12.940186z m-326.092671-211.35636h75.915754v211.35636h-75.915754v-211.35636z m-406.32182 101.796124h75.915754v109.560236h-75.915754v-109.560236z m203.59225 109.560236v-313.152485h75.915754v313.152485h-75.915754z m406.321819 0v-448.593092h75.915754v448.593092h-75.915754z" fill="#2D3036" p-id="3608"></path></svg>