<?xml version="1.0" standalone="no"?><!DOCTYPE svg PUBLIC "-//W3C//DTD SVG 1.1//EN" "http://www.w3.org/Graphics/SVG/1.1/DTD/svg11.dtd"><svg t="1651300842231" class="icon" viewBox="0 0 1024 1024" version="1.1" xmlns="http://www.w3.org/2000/svg" p-id="4474" xmlns:xlink="http://www.w3.org/1999/xlink" width="200" height="200"><defs><style type="text/css">@font-face { font-family: feedback-iconfont; src: url("//at.alicdn.com/t/font_1031158_u69w8yhxdu.woff2?t=1630033759944") format("woff2"), url("//at.alicdn.com/t/font_1031158_u69w8yhxdu.woff?t=1630033759944") format("woff"), url("//at.alicdn.com/t/font_1031158_u69w8yhxdu.ttf?t=1630033759944") format("truetype"); }
</style></defs><path d="M550.9 390.8L340.5 559.5V780c0 23.2 22.7 42.1 50.7 42.1H745c28 0 50.7-18.8 50.7-42.1V559.5L585.4 390.8c-9.8-7.6-24.7-7.6-34.5 0z" fill="#E8CB3A" p-id="4475"></path><path d="M601.5 853.8H401.9V567.2c0-44.6 36.3-81 81-81h42c42.3 0 76.7 34.4 76.7 76.7v290.9z m-165.3-34.3h131V562.9c0-23.4-19-42.4-42.4-42.4h-42c-25.7 0-46.6 20.9-46.6 46.6v252.4zM801.1 345.9V207c0-14.8-12-26.8-26.8-26.8h-26.2c-16.4 0-29.7 13.3-29.7 29.7v65.9l82.7 70.1z" fill="#A53B24" p-id="4476"></path><path d="M149.6 552.7c-17.4 0-34.2-5.7-46.9-17.4-12.5-11.5-19.5-27.4-19.5-44.8 0-20.6 9.8-41.4 26.7-56.9l340.6-289.5c3.9-3.6 8.7-7.2 14-10.4 12.1-8.9 27-13.5 43.5-13 16.5-0.5 31.5 4.1 43.5 13 5.3 3.2 10.2 6.8 14.5 10.8l340.1 289.1c17 15.5 26.7 36.3 26.7 57 0 17.4-6.9 33.3-19.5 44.8-27.9 25.5-74.7 22.6-106.7-6.7L528 291.7c-11.6-9.8-28.3-9.8-39.9 0L208.9 529.1c-17.1 15.6-38.7 23.6-59.3 23.6zM506.1 155c-8.5 0-15.9 2.3-21.6 6.6l-1.7 1.1c-3.6 2.1-6.8 4.5-9.6 7.1L132.6 459.3c-9.4 8.6-15.1 20.2-15.1 31.2 0 5.4 1.4 13.2 8.3 19.4 14.4 13.2 42 10.1 60.4-6.7l279.7-237.8c24.4-20.8 59.9-20.8 84.3 0l279.3 237.4c18.8 17.2 46.5 20.2 60.9 7.1 6.9-6.3 8.3-14 8.3-19.4 0-11-5.6-22.4-15.4-31.4L543.4 170.2c-3.3-3-6.5-5.3-10.1-7.5l-1.7-1.1c-6-4.6-13.9-6.8-23.1-6.6h-2.4z" fill="#050505" p-id="4477"></path><path d="M738.2 853.5H277.9c-45.9 0-83.2-32.3-83.2-71.9V495.3L475 261.6c19.1-14.7 46.8-14.7 65.9 0l280.3 233.7v286.3c0.2 39.7-37.1 71.9-83 71.9zM229.1 511.4v270.3c0 20.7 21.9 37.6 48.8 37.6h460.3c26.9 0 48.8-16.9 48.8-37.6V511.4l-267.5-223c-6-4.6-16.7-4.7-23.3 0.2L229.1 511.4z" fill="#050505" p-id="4478"></path></svg>